<?xml version="1.0" standalone="no"?>
<!DOCTYPE svg PUBLIC "-//W3C//DTD SVG 20010904//EN"
 "http://www.w3.org/TR/2001/REC-SVG-20010904/DTD/svg10.dtd">
<svg version="1.0" xmlns="http://www.w3.org/2000/svg"
 width="1212.000000pt" height="1280.000000pt" viewBox="0 0 1212.000000 1280.000000"
 preserveAspectRatio="xMidYMid meet">
<metadata>
Created by potrace 1.15, written by Peter Selinger 2001-2017
</metadata>
<g transform="translate(0.000000,1280.000000) scale(0.100000,-0.100000)"
fill="#ff0000" stroke="none">
<path d="M5490 12762 c0 -69 27 -133 104 -246 76 -111 103 -176 74 -176 -8 0
-26 -12 -40 -27 -21 -23 -28 -45 -38 -120 -16 -114 -8 -348 15 -453 49 -225
163 -457 315 -639 l53 -64 -60 5 c-33 3 -100 20 -149 36 -49 17 -126 42 -171
56 -138 42 -147 48 -223 160 -37 56 -84 117 -104 136 -20 19 -101 66 -179 105
-128 63 -145 75 -174 118 -36 54 -66 129 -94 237 -16 60 -19 93 -14 160 4 51
2 105 -5 135 -12 55 -55 128 -72 123 -13 -5 -54 -102 -75 -181 -12 -43 -17
-100 -16 -187 1 -209 58 -378 242 -718 l99 -182 -27 -6 c-14 -3 -33 -9 -41
-12 -8 -4 -231 -7 -495 -7 -435 0 -486 -2 -545 -18 -131 -37 -227 -98 -287
-182 l-21 -30 -72 24 c-39 12 -105 25 -145 28 -74 6 -75 6 -85 -21 -5 -15 -10
-49 -10 -75 0 -27 -6 -53 -12 -58 -7 -6 -42 -16 -77 -22 -36 -7 -105 -31 -155
-53 -50 -22 -128 -56 -174 -75 l-83 -34 -51 17 c-65 21 -177 21 -238 -1 -78
-28 -141 -76 -311 -240 -104 -100 -189 -173 -227 -195 -46 -26 -61 -41 -62
-57 0 -22 10 -31 80 -76 19 -13 36 -32 38 -43 4 -27 -80 -143 -165 -230 -38
-38 -126 -115 -194 -169 -277 -220 -314 -253 -406 -349 -108 -114 -105 -112
-193 -142 -59 -19 -65 -24 -67 -50 -3 -33 7 -48 59 -87 75 -55 78 -48 -108
-240 -282 -292 -384 -444 -444 -662 -17 -65 -29 -235 -21 -305 l8 -65 -67 -70
c-117 -122 -129 -155 -56 -155 61 0 68 -13 50 -91 -22 -96 -41 -245 -54 -424
-27 -395 -55 -587 -95 -665 -10 -19 -36 -62 -59 -95 -22 -33 -48 -82 -58 -110
-24 -68 -23 -212 2 -349 28 -153 26 -191 -11 -264 -18 -33 -29 -67 -26 -75 3
-9 27 -17 61 -22 71 -8 78 -19 106 -155 19 -92 21 -128 17 -295 -3 -156 -12
-237 -45 -455 -54 -353 -65 -453 -60 -594 l3 -120 -60 -24 c-101 -40 -112 -63
-65 -139 25 -41 49 -42 132 -7 98 41 93 62 93 -394 1 -433 5 -466 70 -591 39
-74 39 -79 -10 -184 -35 -76 -29 -107 21 -107 28 0 43 9 79 46 61 62 84 59
101 -16 7 -30 38 -113 69 -184 62 -143 85 -224 85 -306 0 -60 -12 -85 -82
-173 -22 -29 -52 -74 -64 -102 l-24 -50 21 -17 c37 -31 94 -23 170 22 75 45
99 50 99 20 0 -32 29 -98 86 -195 51 -87 55 -91 127 -128 75 -38 208 -150 300
-252 l45 -51 -34 -22 c-36 -23 -48 -51 -42 -98 6 -57 140 -104 298 -104 91 0
98 -1 121 -26 40 -43 141 -111 220 -148 74 -35 212 -76 256 -76 13 0 33 -12
46 -27 66 -79 95 -107 151 -143 83 -55 168 -80 271 -80 46 0 94 4 107 9 18 7
39 3 82 -15 291 -118 693 -134 1083 -43 184 43 446 153 576 242 37 26 69 47
72 47 3 0 5 -9 5 -20 0 -25 29 -41 52 -29 9 5 22 28 28 50 16 59 80 118 80 74
0 -8 -11 -22 -24 -30 -28 -19 -41 -44 -27 -58 9 -9 363 76 476 114 103 36 218
96 269 142 49 43 50 43 100 35 129 -20 262 33 484 192 114 82 146 100 153 89
6 -8 19 -31 30 -52 30 -56 54 -77 93 -77 33 0 33 1 39 51 8 65 38 113 91 144
35 21 56 25 118 25 95 0 160 12 246 46 131 52 283 170 353 274 32 46 37 50 76
50 29 0 66 12 120 40 43 23 96 43 118 47 l40 5 35 -63 c38 -68 74 -95 115 -85
16 4 25 15 29 40 4 18 28 68 54 111 44 73 50 80 93 90 62 16 144 56 200 96 73
53 239 203 239 216 0 6 11 43 24 83 33 97 94 186 187 274 70 66 129 108 399
285 47 31 126 97 176 147 72 72 100 108 133 174 22 45 41 87 41 94 0 6 17 22
37 36 59 40 205 192 281 292 39 51 142 204 230 340 88 135 179 272 203 305 77
105 207 247 282 308 71 57 74 62 80 110 4 28 7 96 7 151 0 173 12 191 88 139
80 -55 98 -30 82 109 -22 182 -9 401 41 686 41 234 43 254 43 445 0 169 -3
211 -20 273 l-20 72 24 73 c67 201 68 436 2 582 -34 76 -68 116 -123 145 l-45
24 -12 90 c-15 112 -66 312 -119 469 -33 98 -37 118 -23 112 172 -66 259 -71
657 -35 127 11 221 7 322 -16 66 -14 80 -21 295 -132 163 -84 213 -96 363 -89
120 6 190 25 224 61 l22 23 -208 203 c-312 304 -457 419 -650 514 -174 87
-326 125 -530 133 -137 6 -156 1 -110 -30 39 -25 106 -44 242 -67 136 -23 212
-49 241 -81 17 -19 17 -20 -37 -15 -30 3 -115 8 -190 11 -151 6 -217 22 -262
64 -49 45 -61 78 -62 172 0 106 2 104 -162 211 -68 44 -123 87 -123 95 0 8
-17 47 -37 87 -78 150 -246 271 -465 336 -33 10 -33 10 -9 -39 30 -58 84 -104
199 -167 139 -77 185 -121 207 -198 23 -79 15 -151 -31 -280 -63 -176 -74
-217 -68 -242 3 -13 9 -24 13 -24 4 0 49 87 101 193 52 105 95 193 96 195 3 6
125 -61 153 -84 16 -13 33 -37 38 -52 9 -26 -1 -37 -201 -232 -187 -182 -338
-311 -351 -298 -3 2 2 49 11 104 54 355 55 411 9 609 -65 286 -88 338 -183
408 -31 23 -79 64 -106 90 -40 39 -47 50 -36 58 25 16 80 28 218 48 201 29
227 44 439 257 252 253 289 274 497 274 128 1 223 10 294 29 37 11 42 15 42
42 0 72 -49 130 -183 216 -295 190 -522 237 -943 198 -161 -15 -243 -17 -559
-11 -891 17 -904 18 -905 63 0 7 -20 57 -44 111 -50 110 -70 201 -61 266 7 41
24 60 293 328 298 295 331 324 572 499 467 339 754 513 1055 640 131 55 201
102 236 158 16 24 27 46 25 48 -12 12 -278 -71 -420 -132 -267 -114 -472 -246
-916 -589 -107 -83 -238 -183 -291 -222 -68 -49 -128 -106 -201 -190 -119
-135 -202 -216 -268 -261 -50 -34 -130 -76 -135 -71 -2 2 -13 56 -24 121 -37
205 -97 319 -194 368 -37 20 -39 20 -33 2 41 -104 108 -332 171 -582 42 -167
94 -355 116 -417 21 -63 39 -116 39 -119 0 -3 -91 -5 -202 -4 -137 1 -218 -2
-250 -11 -60 -15 -63 -13 -191 112 -177 175 -355 415 -562 758 -227 376 -287
454 -516 675 -312 301 -694 607 -1001 801 l-77 48 -17 68 c-18 76 -47 108 -95
108 -27 0 -29 -3 -29 -38z m453 -458 c140 -70 237 -144 382 -289 77 -77 155
-162 174 -189 l33 -48 -43 23 c-145 74 -286 176 -418 303 -87 85 -220 236
-206 236 3 0 38 -16 78 -36z m-110 -49 c29 -19 62 -58 171 -202 79 -105 130
-153 189 -178 30 -12 35 -20 40 -57 11 -75 46 -168 132 -348 102 -214 117
-262 113 -372 -2 -79 -1 -85 29 -129 38 -55 81 -86 194 -137 117 -54 164 -85
199 -134 17 -23 28 -43 26 -45 -2 -2 -35 10 -72 27 -102 46 -197 70 -308 77
l-99 6 -18 42 c-10 23 -28 54 -40 69 l-21 27 -24 -22 c-15 -14 -24 -34 -24
-54 0 -38 43 -108 93 -152 34 -30 38 -31 74 -21 62 18 220 16 284 -4 110 -34
196 -116 214 -204 6 -30 5 -31 -45 -42 -82 -19 -228 -15 -303 8 -209 65 -357
273 -357 502 0 40 -4 68 -10 68 -6 0 -31 -19 -56 -42 -43 -40 -45 -44 -39 -82
32 -201 123 -360 258 -450 30 -19 90 -48 133 -63 72 -25 91 -27 214 -26 100 0
155 6 213 21 l79 20 73 -52 c76 -55 199 -122 325 -176 201 -87 374 -186 385
-221 3 -10 1 -27 -4 -38 -10 -17 -6 -21 36 -35 109 -37 204 -126 378 -350 55
-72 103 -135 107 -142 5 -7 -5 -28 -22 -49 -23 -30 -27 -41 -19 -56 13 -24 21
-24 45 2 10 12 31 27 46 35 25 13 30 12 49 -7 21 -21 22 -43 7 -124 -5 -30 28
-30 63 -1 41 35 69 34 69 -1 0 -16 10 -48 21 -73 15 -34 19 -56 14 -87 -6 -41
-5 -43 19 -43 24 0 25 3 28 68 l3 67 36 3 c26 2 40 -3 55 -19 17 -19 19 -35
16 -162 -1 -83 2 -154 9 -174 30 -92 53 23 33 166 -8 57 -12 106 -10 108 7 7
59 -23 77 -43 31 -35 49 -83 56 -144 3 -33 9 -60 13 -60 3 0 19 14 35 30 34
36 51 37 82 9 18 -18 23 -19 28 -7 3 8 1 27 -4 41 -13 33 -4 34 52 6 109 -56
189 -126 363 -320 l112 -126 -5 -194 c-6 -227 7 -324 63 -454 40 -96 42 -120
18 -377 -19 -200 -12 -284 27 -363 33 -65 46 -74 60 -39 9 23 8 51 -5 129 -17
103 -20 182 -10 209 13 35 21 12 26 -74 5 -88 17 -120 44 -120 22 0 44 55 44
108 0 40 -10 69 -55 157 -39 76 -55 118 -55 147 l0 39 39 -22 c118 -66 186
-194 272 -509 19 -68 25 -80 30 -60 14 49 9 139 -16 276 -29 164 -31 225 -7
279 l18 40 32 -43 c49 -68 56 -125 36 -298 -19 -171 -16 -251 11 -270 12 -9
48 -14 99 -15 78 0 82 -1 105 -31 115 -144 118 -522 7 -713 -31 -52 -55 -57
-106 -22 -73 48 -98 142 -80 295 7 53 23 133 36 179 13 46 24 87 24 91 0 4
-16 17 -35 30 -37 24 -45 54 -24 93 9 18 8 19 -9 10 -50 -27 -101 -112 -130
-216 -10 -36 -22 -66 -27 -67 -23 -1 -44 104 -54 268 -5 93 -14 181 -19 194
l-10 25 -11 -28 c-15 -40 -14 -139 4 -260 9 -56 15 -141 14 -188 -1 -48 1 -92
5 -98 4 -6 23 -11 42 -11 l34 0 0 -122 c0 -68 7 -184 14 -258 25 -232 29 -349
17 -443 -20 -153 -56 -222 -214 -421 -108 -137 -148 -216 -155 -308 -4 -64 -3
-68 14 -62 68 25 107 82 161 231 46 129 80 190 122 219 19 13 36 22 37 21 4
-4 -22 -117 -45 -201 -37 -127 -105 -288 -212 -495 -55 -106 -98 -196 -95
-198 3 -3 34 23 68 58 81 82 112 146 198 410 66 202 117 315 158 353 20 17 20
17 27 -37 9 -75 -18 -180 -88 -332 -94 -208 -103 -245 -58 -245 14 0 91 69 91
83 0 1 11 34 25 72 l24 70 0 -52 c1 -67 -30 -150 -79 -211 -21 -26 -84 -96
-140 -157 -73 -79 -111 -130 -138 -184 -34 -68 -37 -83 -40 -176 l-4 -101 37
-35 c41 -38 58 -73 50 -100 -8 -24 -25 -15 -25 12 0 10 -5 19 -11 19 -25 0
-234 -227 -359 -390 -146 -188 -302 -354 -390 -412 -30 -20 -57 -35 -59 -33
-5 6 37 72 85 135 23 30 115 134 204 230 161 174 242 273 293 361 33 56 33 59
2 59 -37 0 -89 -52 -147 -148 -28 -47 -96 -140 -151 -206 -129 -156 -433 -458
-564 -561 l-103 -80 0 -71 0 -72 -82 -66 c-45 -37 -174 -153 -287 -260 -280
-262 -352 -323 -475 -397 -46 -28 -55 -39 -56 -62 0 -49 -28 -98 -98 -171 -37
-39 -75 -87 -84 -107 -14 -30 -26 -38 -70 -51 -29 -9 -86 -27 -125 -42 -40
-14 -86 -26 -103 -26 l-31 0 33 41 c18 23 85 80 148 127 222 166 282 231 316
347 13 46 20 53 80 88 241 141 469 370 770 772 228 304 236 315 216 315 -35 0
-108 -58 -197 -156 -144 -160 -222 -231 -286 -261 -45 -22 -58 -33 -58 -51 -1
-14 -20 -41 -48 -69 -51 -49 -48 -60 11 -49 23 4 51 26 94 71 72 76 97 85 50
17 -47 -67 -504 -522 -525 -522 -10 0 -31 7 -46 15 -27 14 -30 13 -100 -39
-40 -29 -171 -133 -292 -231 -230 -185 -420 -318 -542 -379 -40 -20 -75 -36
-77 -36 -3 0 -1 14 4 30 25 86 90 145 295 262 225 129 239 142 164 154 l-40 7
43 44 c24 25 90 86 148 135 105 90 141 126 183 183 l22 30 -35 -25 c-19 -14
-116 -88 -215 -165 -99 -77 -204 -155 -233 -173 l-52 -32 -20 20 c-15 15 -28
19 -48 14 -81 -19 -224 -122 -415 -297 -93 -85 -554 -567 -543 -567 12 0 176
147 368 330 244 233 358 327 493 410 99 60 100 60 103 35 4 -29 8 -30 51 -9
17 9 39 13 48 9 13 -5 7 -12 -27 -32 -100 -59 -239 -173 -425 -351 -410 -391
-489 -457 -673 -559 -98 -54 -229 -109 -238 -100 -9 8 46 65 84 88 42 25 102
79 102 91 0 14 -71 -28 -155 -91 -76 -58 -127 -82 -203 -95 l-34 -6 43 51 c57
68 148 148 384 339 169 137 355 302 355 316 0 6 -101 -57 -150 -94 -25 -18
-116 -97 -203 -174 -239 -213 -352 -296 -482 -353 l-57 -26 20 29 c35 49 244
244 352 330 58 45 222 169 365 276 143 106 311 241 373 299 117 110 188 154
261 164 l41 6 0 53 c0 29 -4 63 -9 76 -25 68 -23 76 17 97 31 16 64 20 170 23
73 1 132 2 132 0 0 -22 -42 -67 -94 -101 -63 -40 -86 -68 -48 -57 9 3 35 10
58 15 80 21 167 95 232 198 18 29 40 48 67 59 120 48 266 171 355 299 44 64
112 195 133 258 6 16 121 97 139 97 4 0 8 18 8 40 0 77 18 101 118 154 94 50
139 87 127 105 -12 21 -40 11 -95 -34 -60 -49 -110 -73 -110 -51 0 19 49 82
124 159 61 63 124 152 114 162 -8 8 -138 -97 -199 -163 -81 -86 -250 -307
-242 -316 4 -3 22 -3 40 0 38 7 40 1 13 -44 -23 -38 -88 -71 -139 -72 -55 0
-171 32 -171 47 0 8 9 32 21 54 20 41 79 78 124 79 15 0 25 13 39 51 17 51 75
118 170 198 41 35 39 44 -12 57 -32 9 -66 -17 -123 -95 -27 -37 -64 -76 -82
-86 -78 -42 -119 16 -54 78 19 18 49 41 67 52 30 18 60 69 47 81 -16 16 -92
-37 -172 -119 -99 -101 -139 -126 -221 -134 -83 -9 -76 8 56 132 46 44 89 110
77 121 -12 12 -116 -72 -202 -164 -149 -159 -248 -255 -279 -272 -24 -12 -28
-12 -36 0 -22 34 -10 62 57 131 36 38 64 72 60 75 -3 4 -22 3 -41 0 -43 -8
-109 -67 -227 -202 -101 -116 -115 -122 -165 -73 -27 26 -35 29 -53 20 -26
-14 -26 -18 -1 -56 36 -54 28 -68 -62 -121 -121 -69 -650 -427 -656 -443 -1
-4 4 -13 11 -20 12 -9 23 -4 57 24 47 39 63 40 68 6 3 -15 -9 -33 -37 -59 -70
-64 -45 -56 33 10 40 35 165 128 277 208 146 104 240 180 335 271 128 123 185
162 260 179 32 8 34 7 34 -19 0 -16 -17 -51 -41 -84 -42 -59 -38 -68 17 -47
15 6 82 64 148 129 67 65 135 125 151 134 37 19 115 40 122 33 12 -12 -72
-128 -135 -188 -67 -63 -113 -95 -317 -221 l-100 -62 0 -75 c-1 -79 -15 -118
-85 -236 -18 -31 -33 -73 -37 -103 -5 -41 -9 -51 -25 -51 -43 0 -96 -35 -187
-124 -116 -112 -136 -126 -179 -126 -34 0 -34 0 -27 37 19 105 87 184 269 313
65 47 138 107 162 134 41 47 42 51 29 76 -13 24 -63 66 -69 58 -2 -2 -17 -30
-35 -63 -63 -120 -159 -215 -347 -345 -89 -61 -105 -69 -99 -49 9 30 38 85 64
124 38 55 195 205 276 262 85 62 215 184 215 204 0 20 -62 1 -117 -37 -50 -35
-319 -309 -419 -427 l-49 -58 -93 -5 c-100 -5 -136 4 -125 33 6 14 1 13 -28
-5 -19 -13 -119 -74 -224 -136 -104 -63 -221 -136 -260 -164 -79 -56 -175
-139 -175 -153 0 -5 18 -18 41 -29 22 -12 48 -34 57 -49 l16 -29 49 70 c66 95
177 209 245 255 117 78 275 109 407 81 l60 -13 -1 -80 c0 -91 -22 -151 -79
-220 l-34 -42 -48 10 c-63 13 -406 -10 -400 -27 7 -23 54 -36 127 -36 78 0
120 -16 120 -46 0 -19 -80 -19 -170 2 l-69 15 -53 -53 c-43 -43 -158 -118
-181 -118 -14 0 10 44 48 89 78 91 73 122 -13 75 -75 -40 -114 -95 -120 -168
l-4 -54 -92 -63 c-134 -92 -319 -232 -416 -313 -95 -79 -254 -235 -247 -242 8
-8 87 25 130 54 23 16 113 96 200 176 88 81 187 166 222 191 68 49 188 109
206 103 16 -5 -233 -244 -392 -376 -74 -61 -225 -183 -337 -272 -112 -88 -200
-160 -197 -160 4 0 49 20 100 45 166 79 288 171 560 420 170 156 294 260 375
315 33 22 60 46 60 53 0 19 -21 37 -45 37 -32 1 39 56 104 81 57 21 255 48
267 36 13 -13 -17 -52 -66 -86 -27 -18 -59 -45 -72 -59 -55 -61 145 89 397
296 249 205 443 325 629 388 38 13 71 22 73 20 10 -10 -137 -139 -282 -247
-285 -213 -342 -259 -424 -345 -66 -68 -87 -84 -111 -84 -16 0 -59 -12 -95
-26 -59 -24 -68 -31 -97 -82 -41 -71 -133 -164 -223 -224 -66 -44 -294 -168
-308 -168 -4 0 -7 11 -7 23 0 38 50 98 147 175 91 72 169 150 160 159 -13 12
-78 -38 -191 -146 -123 -117 -179 -158 -247 -180 -31 -10 -38 -18 -44 -48 -12
-64 -48 -126 -105 -183 -65 -65 -291 -213 -313 -205 -8 4 -19 17 -25 31 -7 13
-17 24 -24 24 -21 0 -247 -139 -323 -197 -79 -63 -131 -91 -254 -138 -47 -18
-123 -49 -168 -69 -90 -40 -150 -46 -238 -22 -42 11 -50 16 -49 35 1 20 -3 22
-35 19 -20 -3 -70 -15 -111 -27 -66 -20 -80 -22 -119 -11 l-43 11 73 43 c41
23 117 67 169 97 189 109 303 139 399 106 43 -15 45 -15 104 15 82 41 148 110
247 258 45 69 103 149 128 178 62 73 180 170 357 292 212 146 362 260 420 320
49 50 49 51 20 44 -101 -24 -226 -110 -458 -317 -218 -195 -365 -302 -385
-283 -4 4 -7 28 -6 52 2 71 41 117 171 199 118 75 204 143 348 279 l90 85 -43
1 c-72 0 -158 -70 -222 -183 -24 -44 -37 -56 -68 -65 -52 -16 -145 -77 -234
-154 -156 -136 -159 -138 -254 -138 l-85 0 47 55 c67 77 215 206 474 412 124
99 250 203 280 232 l55 53 -50 -28 c-131 -72 -248 -161 -530 -404 -287 -247
-434 -359 -570 -435 -37 -21 -66 -50 -115 -117 -116 -159 -281 -299 -438 -374
-71 -34 -194 -76 -201 -69 -12 12 93 104 209 181 116 77 210 157 199 169 -3 2
-72 -39 -155 -92 -252 -162 -378 -213 -524 -213 -67 0 -174 16 -198 29 -8 5
28 39 105 99 65 50 170 133 233 183 126 99 307 222 385 262 45 22 52 30 69 81
44 128 130 223 364 400 75 56 165 133 200 170 86 93 82 107 -17 61 -40 -19
-92 -63 -202 -172 -145 -144 -197 -185 -251 -198 -23 -6 -28 -3 -34 20 -18 72
14 126 121 198 33 22 139 117 235 211 96 94 208 194 249 221 65 44 71 50 48
53 -30 4 -86 -23 -185 -90 -118 -79 -190 -104 -246 -82 -24 9 12 51 116 135
88 71 183 167 174 177 -8 7 -114 -55 -177 -104 -31 -24 -126 -117 -210 -206
-275 -291 -309 -315 -539 -373 -161 -41 -222 -78 -240 -146 -6 -21 -29 -70
-52 -109 -24 -43 -43 -89 -46 -116 -4 -37 -11 -50 -41 -72 -20 -15 -92 -72
-161 -127 -180 -145 -256 -193 -362 -231 -37 -13 -43 -12 -87 11 -68 34 -104
80 -98 122 3 18 2 35 -2 37 -4 3 -34 -2 -65 -11 -37 -10 -63 -13 -76 -7 -19 8
-19 10 -4 32 29 41 92 72 219 106 69 18 125 30 125 26 0 -4 -30 -26 -66 -49
-61 -39 -76 -62 -43 -69 8 -1 45 20 83 48 38 27 79 50 92 50 22 0 24 4 24 56
l0 55 143 136 c281 269 477 483 541 594 l20 33 -32 -20 c-71 -45 -152 -126
-287 -288 -130 -157 -273 -306 -294 -306 -15 0 -43 109 -43 168 0 65 29 156
68 216 15 23 66 93 114 156 102 135 165 228 158 235 -12 12 -118 -100 -214
-228 -60 -78 -128 -163 -151 -188 -41 -44 -46 -47 -113 -53 -93 -9 -203 -41
-269 -77 -30 -16 -56 -27 -58 -25 -12 12 114 168 256 318 181 190 237 260 286
358 33 66 79 199 71 207 -3 3 -15 -15 -27 -39 -100 -197 -267 -399 -611 -740
-260 -257 -288 -288 -279 -307 6 -11 11 -35 11 -54 l0 -35 -42 9 c-71 16 -134
49 -174 90 l-38 39 33 68 c96 196 218 359 411 552 109 110 312 288 465 408 17
14 33 46 49 98 13 44 39 120 56 169 35 96 47 191 36 269 -6 37 -18 59 -61 107
l-54 60 26 57 c91 201 113 275 96 320 l-9 24 -33 -27 c-56 -48 -84 -125 -97
-267 l-7 -78 -46 0 c-117 0 -230 -52 -320 -144 -101 -106 -149 -223 -158 -386
-6 -113 7 -186 48 -277 l22 -48 -23 -42 c-12 -23 -43 -59 -69 -81 l-47 -40 4
-63 c6 -102 0 -113 -223 -384 -36 -44 -78 -106 -93 -137 -15 -31 -30 -57 -33
-57 -11 -1 -29 50 -29 82 0 48 52 148 138 266 43 58 88 123 101 144 21 34 21
37 5 44 -13 5 -29 -6 -61 -43 l-43 -49 6 35 c11 62 59 153 158 301 102 151
106 170 29 131 -21 -11 -60 -43 -86 -70 l-47 -51 -9 37 c-5 20 -17 71 -26 112
-21 91 -53 164 -89 207 -32 38 -119 83 -159 83 l-30 0 7 72 c7 79 31 176 75
313 31 95 27 114 -15 74 -43 -40 -72 -119 -109 -294 -38 -181 -68 -293 -91
-337 -19 -36 -73 -98 -86 -98 -23 0 -1 238 36 396 32 142 57 324 43 324 -12 0
-47 -80 -71 -162 -27 -93 -52 -273 -62 -446 -8 -128 -14 -131 -59 -30 -36 80
-42 191 -22 383 9 77 13 142 10 145 -2 3 -16 -8 -29 -23 l-24 -28 -2 53 c-11
294 56 619 232 1116 27 79 50 148 50 154 0 33 -80 -72 -130 -170 -47 -93 -60
-155 -95 -442 -20 -157 -48 -264 -88 -331 -55 -91 -61 -82 -54 87 6 165 17
219 97 479 63 205 80 300 80 442 0 107 2 120 29 177 43 88 65 180 111 446 43
254 75 382 115 460 37 73 55 67 55 -20 0 -53 3 -70 14 -70 20 0 46 62 111 262
68 211 108 282 187 331 l52 32 -43 3 c-113 8 -229 -115 -276 -294 -8 -32 -15
-69 -15 -81 0 -20 -5 -23 -44 -23 l-44 0 -75 -212 c-109 -309 -146 -472 -147
-646 0 -56 -4 -74 -16 -79 -19 -7 -58 29 -74 68 -7 16 -16 29 -19 29 -4 0 -15
6 -24 12 -15 12 -16 27 -7 173 26 409 118 809 296 1280 15 39 -27 -6 -77 -83
-51 -77 -114 -228 -147 -352 -44 -159 -53 -231 -53 -390 1 -85 -3 -168 -8
-185 -5 -16 -10 -25 -10 -18 -1 7 -10 17 -22 23 -26 15 -69 -11 -69 -41 0 -11
-4 -18 -9 -15 -15 10 -21 150 -11 281 12 154 47 365 95 564 19 79 35 145 35
147 0 2 -8 4 -18 4 -35 0 -55 -37 -62 -113 -6 -67 -7 -70 -18 -44 -16 38 -15
150 2 212 7 28 37 112 65 189 57 152 75 213 86 295 6 43 5 53 -6 49 -31 -10
-70 -115 -99 -262 -33 -164 -49 -226 -61 -226 -12 0 -24 164 -22 306 3 244 47
479 148 793 25 78 43 146 40 151 -3 6 -15 10 -27 10 -18 0 -20 4 -14 31 11 59
68 140 178 257 165 176 207 246 227 379 10 65 15 77 49 108 20 19 40 35 43 35
4 0 60 64 124 143 65 78 134 159 154 180 l35 37 -39 0 c-73 0 -131 -55 -224
-208 -47 -78 -55 -79 -66 -11 -15 85 29 166 174 323 50 55 91 103 91 108 0 4
-11 8 -25 8 -31 0 -74 -45 -153 -160 -56 -82 -111 -131 -160 -145 -43 -12 74
150 406 567 122 153 253 323 292 377 65 91 76 102 135 129 83 40 139 92 245
232 98 129 186 217 248 249 61 31 75 28 70 -14 -2 -19 -1 -35 2 -35 3 0 55 45
115 101 128 117 235 192 310 215 34 11 57 25 63 38 39 86 168 195 290 245 69
29 221 71 251 71 27 -1 -26 -38 -119 -85 -47 -24 -94 -52 -104 -64 -19 -21
-19 -21 5 -21 65 0 176 60 294 159 31 26 56 39 65 35 8 -4 46 -17 83 -31 209
-74 523 -71 676 6 100 52 161 141 161 239 0 51 0 52 31 52 16 0 85 11 151 25
138 29 288 43 288 28 0 -18 -52 -34 -182 -53 -70 -11 -141 -26 -157 -35 -27
-13 -75 -64 -68 -71 1 -1 34 6 72 17 39 11 142 29 230 40 187 24 249 36 290
57 34 17 47 17 295 -4 331 -28 543 -70 701 -138 l79 -34 0 47 c0 133 -57 263
-217 492 -154 219 -203 328 -203 448 l0 54 21 -19 c12 -10 72 -82 134 -160
104 -128 179 -200 245 -234 l24 -13 -18 29 c-37 58 -97 131 -196 239 -101 110
-191 235 -223 310 l-18 40 48 -55 c87 -100 197 -211 273 -274 87 -73 229 -170
237 -163 6 7 -151 164 -310 311 -65 59 -136 135 -159 168 -38 58 -93 176 -85
184 4 4 46 -45 200 -232 68 -83 172 -185 207 -204 17 -9 20 -7 20 10 0 12 -30
50 -75 95 -41 41 -75 78 -75 83 0 5 7 15 15 22 12 10 21 7 50 -19 20 -17 45
-31 56 -31 17 0 18 3 8 23 -25 47 -73 99 -166 179 -92 79 -183 185 -183 213 0
17 44 6 83 -20z m-1040 -513 c15 -27 41 -102 57 -166 17 -64 39 -134 50 -156
17 -33 17 -39 4 -44 -25 -10 -80 20 -101 55 -12 19 -28 54 -36 79 -14 42 -67
288 -67 312 0 23 67 -35 93 -80z m1658 -2 c150 -54 301 -156 402 -271 79 -88
185 -255 252 -394 59 -121 135 -297 135 -311 0 -4 -16 6 -36 21 -19 15 -37 25
-39 24 -11 -11 56 -116 121 -189 72 -81 135 -182 122 -196 -12 -11 -48 17 -99
79 -79 97 -129 132 -129 90 0 -10 34 -49 75 -88 50 -47 75 -77 75 -92 0 -22
-4 -23 -70 -23 l-69 0 -46 88 c-25 49 -83 135 -130 193 -47 57 -128 155 -179
218 -95 115 -162 227 -195 323 -20 59 -47 71 -67 30 -10 -21 -13 -17 -37 45
-14 38 -57 138 -95 223 -39 85 -77 179 -86 208 -18 63 -18 63 95 22z m-1372
-295 c61 -21 120 -65 243 -181 156 -148 208 -181 331 -214 l72 -20 -110 4
c-87 2 -126 8 -183 29 -104 36 -198 95 -291 183 -73 69 -181 193 -181 208 0
11 78 6 119 -9z m1547 -340 c8 -13 31 -63 49 -111 19 -47 40 -93 46 -100 7 -9
8 -14 1 -14 -15 0 -69 65 -93 112 -18 36 -59 143 -59 155 0 11 42 -21 56 -42z
m-706 -110 c23 -8 57 -15 74 -15 29 -1 30 -1 12 -15 -25 -19 -62 -19 -142 1
-52 14 -62 19 -53 30 15 18 56 18 109 -1z m-1693 -41 c36 -7 73 -81 73 -145
l0 -55 -52 -31 c-74 -45 -135 -70 -186 -76 -42 -5 -43 -5 -27 13 9 10 50 33
91 51 41 18 74 37 74 41 0 5 -4 6 -10 3 -5 -3 -89 1 -185 10 -219 19 -298 20
-293 3 2 -7 18 -20 36 -28 17 -8 32 -18 32 -22 0 -4 -15 -17 -32 -30 -45 -31
-146 -36 -203 -10 l-40 19 38 16 c21 9 99 56 175 105 147 96 222 129 317 141
56 8 142 5 192 -5z m3308 -417 c98 -74 165 -171 165 -239 0 -46 17 -64 100
-109 65 -34 100 -75 100 -116 0 -44 -49 -20 -164 81 -41 35 -89 70 -109 77
-35 12 -36 13 -31 58 6 56 -8 80 -89 145 -65 53 -87 89 -87 141 l0 36 28 -15
c15 -8 55 -35 87 -59z m-4855 -126 c0 -15 -10 -41 -22 -56 -22 -29 -185 -111
-197 -100 -7 8 45 54 87 77 16 9 35 25 41 36 10 19 9 20 -17 13 -58 -17 -91
-43 -180 -139 -85 -93 -138 -132 -175 -132 -13 0 -14 6 -3 48 30 110 95 196
185 242 57 29 104 38 199 39 l82 1 0 -29z m4661 -141 c18 -10 27 -40 12 -40
-11 0 -73 39 -73 45 0 9 41 5 61 -5z m2068 -126 c-69 -83 -414 -103 -651 -37
-32 8 -58 19 -58 24 0 18 124 27 414 28 279 1 307 -1 295 -15z m816 -44 c198
-17 366 -53 505 -107 71 -28 173 -83 167 -89 -14 -14 -141 -49 -264 -74 -218
-43 -279 -78 -359 -208 -58 -95 -84 -124 -154 -172 -113 -77 -288 -149 -484
-201 -88 -23 -477 -109 -492 -109 -2 0 -1 7 2 15 3 8 -1 29 -10 47 -25 49 -5
60 99 52 66 -4 77 -3 60 7 -12 8 -86 16 -195 21 -96 4 -188 12 -204 18 -45 16
-48 13 -40 -35 l6 -45 -32 0 c-48 0 -170 32 -170 44 1 6 7 22 15 36 8 14 14
34 15 46 0 19 -6 21 -79 21 -86 1 -141 21 -141 51 0 43 53 54 131 26 65 -23
140 -35 172 -28 49 11 27 30 -56 48 -17 4 -25 11 -21 18 5 8 38 8 113 3 58 -5
135 -9 170 -9 41 -1 66 -5 68 -13 3 -9 -23 -13 -98 -15 -129 -4 -146 -23 -29
-33 171 -15 330 -20 327 -10 -2 6 -32 19 -67 31 -46 15 -59 22 -45 26 11 4 79
33 150 66 258 119 566 201 758 202 71 0 130 27 157 73 27 43 25 52 -9 67 -26
11 -241 12 -241 1 0 -2 8 -10 18 -18 15 -13 11 -14 -35 -9 -47 4 -52 3 -55
-17 -2 -14 -14 -24 -36 -31 -18 -5 -35 -6 -38 -3 -9 9 27 57 45 58 9 1 -9 5
-39 9 -66 8 -100 -2 -100 -30 0 -16 -6 -20 -32 -20 -18 0 -53 5 -77 11 -24 5
-52 7 -63 3 -18 -5 -18 -7 -4 -23 23 -25 20 -47 -11 -75 -51 -47 -153 -54
-169 -11 -10 24 -22 18 -46 -25 l-23 -40 -166 0 c-190 0 -306 10 -534 46 -88
14 -177 28 -197 31 -40 6 -46 -2 -25 -32 11 -14 33 -20 90 -24 89 -8 115 -23
66 -40 -67 -23 -184 -9 -229 27 -20 16 -21 21 -9 40 22 35 3 52 -119 112 -112
55 -166 96 -175 131 -7 27 22 25 64 -6 56 -40 91 -57 99 -48 8 8 14 69 11 106
0 9 -15 26 -32 36 l-32 20 59 18 c99 30 298 24 519 -16 99 -18 221 -39 270
-47 113 -17 301 -18 383 0 l62 13 -21 -23 c-12 -13 -16 -24 -10 -28 5 -3 47
-2 93 4 120 15 325 24 315 14 -5 -5 -23 -14 -40 -20 l-32 -11 49 -8 c64 -10
219 0 277 19 150 47 142 86 -18 86 -64 0 -95 4 -111 16 -14 9 -41 15 -70 14
-65 -2 -72 -1 -72 9 0 5 12 12 28 14 56 8 331 6 447 -3z m-575 -62 c0 -17 -39
-25 -97 -20 -60 4 -72 10 -56 26 9 9 153 3 153 -6z m-713 -453 c77 0 90 -2 80
-14 -31 -37 -74 -43 -269 -36 -103 4 -188 11 -188 15 0 10 40 36 65 43 11 3
65 3 120 -1 55 -3 141 -7 192 -7z m816 -955 c15 -16 33 -30 40 -30 7 0 6 -4
-4 -10 -35 -21 -109 19 -109 59 0 23 48 10 73 -19z m-8887 -389 c-15 -184 -99
-341 -253 -477 -90 -79 -87 -79 -79 17 24 278 114 490 226 532 8 3 37 6 64 6
l49 1 -7 -79z m9525 -63 c19 -6 59 -28 89 -49 55 -37 56 -38 200 -48 165 -13
369 -35 514 -56 55 -8 107 -15 115 -15 26 -1 -25 -38 -67 -50 -62 -17 -207
-11 -361 14 -80 13 -166 26 -191 29 l-45 6 28 -24 c44 -39 87 -46 367 -63 303
-18 423 -20 463 -9 23 6 34 1 74 -35 25 -24 80 -86 121 -138 41 -52 96 -116
121 -142 l45 -48 -41 0 c-101 0 -251 43 -483 140 -285 119 -390 145 -653 165
-225 17 -304 34 -378 79 -53 32 -119 110 -105 123 18 19 116 3 202 -32 49 -20
112 -39 139 -42 47 -6 49 -5 36 11 -21 25 -77 51 -141 66 -88 20 -160 50 -160
66 0 19 45 64 63 64 8 0 29 -5 48 -12z m-532 -144 c25 -32 27 -83 6 -169 -18
-72 -19 -115 -4 -115 29 0 80 35 104 72 25 38 28 39 43 24 15 -14 17 -37 14
-153 -1 -75 -4 -139 -7 -141 -2 -2 -22 -1 -44 3 -50 8 -99 40 -129 85 -23 35
-102 270 -102 306 0 12 18 37 40 58 22 20 40 41 40 46 0 18 18 10 39 -16z
m461 -220 c47 -19 100 -40 118 -46 42 -15 41 -25 -7 -38 -68 -18 -174 13 -260
77 -25 20 -30 28 -20 34 28 17 86 8 169 -27z m-110 -1740 c73 -62 96 -162 86
-377 -8 -179 -13 -217 -32 -217 -10 0 -14 15 -14 54 0 110 -48 77 -60 -41 -5
-43 -12 -86 -15 -96 -7 -17 -51 -34 -61 -24 -3 3 1 41 10 84 26 131 38 276 40
464 0 98 4 179 8 179 3 0 21 -12 38 -26z m290 -15 c7 -13 9 -48 4 -99 -6 -74
-8 -79 -26 -69 -35 19 -59 70 -55 116 3 24 10 50 17 58 18 21 47 19 60 -6z
m-10245 -267 c0 -75 4 -144 8 -154 6 -12 3 -18 -13 -23 -53 -17 -71 63 -51
218 7 51 15 100 18 111 5 17 6 17 22 2 13 -14 16 -40 16 -154z m10106 146 c7
-13 17 -26 23 -30 8 -5 7 -11 -2 -20 -19 -19 -46 3 -50 41 -4 36 12 41 29 9z
m83 -149 c10 -10 -13 -271 -35 -409 -11 -69 -36 -186 -54 -260 -39 -154 -103
-346 -104 -312 -1 12 -12 55 -26 94 -14 39 -25 85 -25 102 0 49 19 106 35 106
12 0 15 -16 16 -67 l1 -68 25 55 c45 98 62 215 72 493 5 141 12 260 15 265 6
10 70 11 80 1z m-10050 -1056 c21 -60 21 -127 0 -144 -25 -21 -34 6 -34 109 0
101 9 110 34 35z m9852 -10 c-13 -53 -28 -82 -48 -89 -27 -8 -31 -1 -24 41 8
40 37 75 62 75 13 0 15 -6 10 -27z m-95 -250 c56 -91 -27 -272 -169 -370 -71
-49 -76 -46 -68 41 7 82 28 161 57 218 27 53 127 158 144 151 8 -3 24 -21 36
-40z m-9648 -131 c10 -159 2 -191 -57 -228 -55 -35 -70 -60 -91 -155 -18 -84
-42 -119 -80 -119 l-25 0 0 128 c1 231 34 397 93 460 30 33 54 42 107 39 l45
-2 8 -123z m-83 -587 c0 -21 -5 -25 -30 -25 -25 0 -30 4 -30 25 0 21 5 25 30
25 25 0 30 -4 30 -25z m-156 -38 c18 -13 18 -15 0 -70 -19 -58 -32 -68 -54
-42 -9 11 -9 22 -1 46 6 18 11 43 11 55 0 27 17 31 44 11z m9385 -151 c-15
-93 -70 -186 -168 -285 -99 -99 -271 -238 -271 -217 0 32 107 171 232 302 74
78 152 169 173 203 21 34 39 60 40 59 2 -2 -1 -30 -6 -62z m-2095 -413 c-16
-94 -73 -151 -178 -178 -33 -8 -61 -13 -63 -11 -6 6 36 86 65 123 27 36 76 70
131 89 51 19 53 18 45 -23z m1520 -263 c1 -136 -98 -244 -300 -325 -36 -14
-69 -25 -74 -23 -16 6 58 180 106 251 53 78 124 139 199 172 45 21 51 21 59 6
6 -9 10 -45 10 -81z m-8722 -3 c9 -45 29 -138 43 -206 14 -68 25 -135 23 -150
-3 -24 -6 -22 -36 28 -42 68 -72 183 -72 276 0 76 8 135 19 135 3 0 14 -37 23
-83z m7264 21 c25 -11 48 -27 51 -35 10 -26 -17 -92 -71 -170 -29 -43 -55 -86
-59 -95 -5 -15 -11 -16 -32 -8 -47 18 -121 10 -236 -24 -156 -47 -230 -59
-317 -51 -66 6 -73 9 -78 31 -19 75 62 151 226 215 58 22 139 59 180 81 144
79 250 97 336 56z m-5614 -85 c23 -22 28 -35 28 -77 -1 -128 -61 -290 -141
-380 -53 -60 -141 -118 -221 -148 l-59 -21 6 -71 c7 -90 -4 -111 -34 -63 -90
147 -76 302 60 632 l50 120 102 22 c121 25 171 22 209 -14z m6538 -300 c14 -9
27 -18 29 -20 9 -6 -113 -153 -191 -229 -129 -126 -249 -210 -402 -282 l-49
-22 45 52 c25 29 90 93 144 141 54 49 133 118 174 155 42 37 106 102 144 145
38 42 72 77 75 77 4 0 18 -8 31 -17z m-1590 -93 c16 -30 13 -35 -35 -49 -48
-14 -131 -81 -154 -125 -34 -62 -43 0 -11 65 28 54 88 119 125 135 33 14 58 5
75 -26z m230 1 c0 -13 -94 -40 -98 -29 -2 5 2 15 8 23 14 16 90 21 90 6z
m-6129 -68 c6 -16 14 -71 16 -123 4 -83 2 -103 -20 -162 -13 -37 -40 -93 -58
-124 -32 -52 -152 -195 -171 -202 -5 -2 -18 18 -30 45 -18 39 -22 66 -22 143
0 98 8 134 75 353 l31 97 84 0 c83 0 85 -1 95 -27z m6452 -490 c-156 -165
-246 -243 -328 -284 -54 -26 -163 -53 -174 -43 -18 17 207 200 394 322 230
150 230 150 234 146 2 -2 -54 -66 -126 -141z m587 22 c0 -45 -57 -109 -128
-145 -44 -21 -196 -59 -241 -60 l-23 0 27 38 c53 71 120 111 260 153 109 33
105 33 105 14z m-7080 -61 c0 -30 -56 -93 -98 -111 -19 -8 -36 -12 -39 -9 -7
7 16 46 65 109 35 45 48 55 58 46 8 -6 14 -22 14 -35z m2424 -119 c9 -14 27
-27 41 -31 24 -6 24 -7 -28 -67 -156 -182 -212 -220 -297 -197 -22 6 -40 13
-40 16 0 3 9 21 19 42 22 42 69 88 158 156 34 25 71 60 83 76 26 37 43 38 64
5z m-2389 -65 l22 -21 -38 -72 c-40 -77 -70 -110 -106 -122 -17 -5 -23 -2 -23
10 0 9 -14 30 -30 47 l-31 30 22 42 c25 49 57 85 84 96 36 15 78 11 100 -10z
m5914 -186 c37 -8 39 -24 15 -103 -19 -66 -78 -127 -157 -165 -31 -14 -123
-44 -204 -67 -81 -22 -171 -51 -200 -64 -56 -25 -139 -95 -148 -126 -10 -30
-25 -12 -25 31 0 63 71 130 152 145 31 6 42 15 64 54 46 77 190 213 264 249
88 42 175 58 239 46z m-4995 -113 c39 -44 65 -181 31 -167 -8 3 -22 9 -30 12
-9 4 -36 -15 -73 -50 -42 -40 -67 -56 -86 -56 -18 0 -26 -5 -24 -12 7 -20 43
-21 77 -4 16 9 37 16 46 16 26 0 -22 -78 -66 -107 -36 -23 -123 -45 -232 -58
-56 -6 -58 -6 -48 13 6 10 34 29 63 41 70 29 81 35 86 51 9 26 -167 -17 -312
-75 -16 -7 -17 -5 -11 16 55 188 202 313 440 375 111 28 118 29 139 5z m1088
-21 c29 -11 66 -31 82 -45 l30 -24 -46 -53 c-86 -100 -214 -225 -275 -266 -70
-48 -170 -90 -232 -99 l-44 -6 5 85 c4 71 10 97 41 162 73 154 217 263 349
265 21 1 61 -8 90 -19z m1039 -466 c14 -8 10 -66 -6 -94 -8 -14 -14 -36 -15
-50 0 -23 -3 -25 -53 -25 -43 0 -74 -10 -182 -62 -71 -34 -156 -69 -188 -78
-51 -15 -63 -23 -90 -63 -18 -26 -48 -63 -67 -82 l-35 -35 -3 27 c-4 37 22
137 55 206 34 73 140 179 214 215 84 41 170 58 272 52 49 -3 93 -7 98 -11z
m1261 -45 c51 -29 57 -52 26 -99 -41 -60 -69 -70 -240 -80 -84 -4 -166 -13
-181 -19 -37 -14 -37 -15 -37 12 0 37 43 99 95 139 102 78 244 98 337 47z
m402 -40 c-29 -32 -83 -56 -160 -72 -80 -16 -92 -7 -46 34 22 20 48 30 103 39
41 6 79 13 84 15 30 10 37 4 19 -16z m-3055 -99 c-155 -152 -294 -232 -428
-246 -97 -11 -102 2 -29 74 85 83 146 126 253 178 87 41 278 99 293 88 2 -1
-38 -44 -89 -94z m-1175 47 c19 -30 -5 -38 -62 -19 -56 18 -62 34 -16 43 35 7
65 -2 78 -24z m808 -78 c-47 -45 -96 -81 -136 -100 -64 -30 -171 -58 -181 -47
-11 10 55 106 93 136 74 59 136 80 237 81 l60 0 -73 -70z m1633 -48 c-12 -10
-106 -34 -112 -27 -3 2 17 11 44 19 57 18 81 21 68 8z m-622 -164 c-5 -7 -21
-31 -37 -54 -27 -41 -30 -61 -12 -104 6 -14 -5 -19 -65 -33 -83 -19 -119 -45
-119 -88 0 -23 -4 -28 -26 -28 -14 0 -51 7 -81 16 -30 9 -68 14 -84 12 -78
-12 22 74 179 154 85 43 139 77 170 109 38 38 50 45 65 38 10 -6 14 -15 10
-22z m-573 -189 c0 -24 -33 -56 -66 -64 -70 -18 -230 18 -242 54 -7 23 43 31
176 29 118 -2 132 -4 132 -19z"/>
<path d="M4900 10815 c-52 -13 -130 -42 -130 -48 0 -2 55 -1 123 1 67 3 205
-1 307 -8 210 -14 245 -12 188 14 -80 35 -154 48 -293 52 -99 2 -156 -1 -195
-11z"/>
<path d="M5635 10780 l-30 -6 35 -8 c19 -5 89 -24 155 -43 87 -25 135 -33 175
-31 l55 3 -40 19 c-91 42 -286 79 -350 66z"/>
<path d="M5428 10675 c-77 -19 -170 -67 -212 -110 -55 -54 -70 -91 -71 -167 0
-38 -3 -68 -7 -68 -3 0 -39 25 -79 55 -87 66 -109 73 -155 52 -38 -19 -40 -26
-20 -66 34 -65 135 -128 264 -163 65 -18 105 -22 257 -22 200 0 278 15 391 72
100 51 144 111 144 195 -1 91 -63 167 -170 209 -72 27 -257 35 -342 13z m217
-56 c101 -18 180 -70 215 -140 26 -50 25 -61 -6 -106 -25 -37 -28 -38 -87 -40
-39 -1 -84 -11 -122 -26 -74 -30 -125 -40 -125 -26 0 6 19 29 42 50 23 21 40
41 37 44 -4 3 -41 -11 -83 -31 -96 -46 -148 -44 -225 5 -57 37 -61 52 -32 109
41 80 118 134 225 157 78 17 90 17 161 4z"/>
<path d="M4620 10635 c-64 -13 -161 -46 -190 -65 -20 -13 181 -13 268 0 67 9
153 46 160 68 5 16 -150 15 -238 -3z"/>
<path d="M5987 10593 c-7 -11 220 -119 230 -110 13 13 -17 57 -56 83 -29 19
-58 28 -104 31 -37 3 -67 1 -70 -4z"/>
<path d="M3461 10486 c-8 -10 -58 -40 -112 -66 -92 -47 -149 -95 -149 -126 0
-8 3 -14 6 -14 18 0 147 58 191 86 61 39 86 72 81 110 -3 25 -4 26 -17 10z"/>
<path d="M3655 10376 c-85 -21 -135 -55 -135 -91 0 -31 10 -37 34 -22 12 8 46
22 76 32 61 20 100 49 100 77 0 21 -6 21 -75 4z"/>
<path d="M4289 10350 c-90 -15 -136 -48 -154 -109 -6 -21 -5 -23 11 -17 11 4
67 14 125 22 127 16 150 24 178 60 36 46 29 54 -46 53 -38 -1 -89 -5 -114 -9z"/>
<path d="M2999 10301 c-92 -39 -162 -88 -292 -203 -148 -131 -216 -182 -298
-221 -60 -29 -70 -37 -90 -81 -49 -109 -125 -202 -329 -406 -225 -224 -305
-322 -295 -363 4 -14 -3 -59 -14 -101 -12 -42 -21 -89 -21 -104 0 -38 -28 -62
-132 -111 -66 -31 -92 -49 -103 -72 -13 -24 -14 -33 -4 -45 43 -51 150 -61
239 -22 30 14 93 50 140 80 47 31 144 88 215 128 276 153 383 241 438 358 17
36 32 87 35 114 4 43 1 54 -27 93 -23 32 -31 54 -31 85 0 45 11 58 113 143 41
33 69 88 54 103 -2 3 -23 -2 -45 -11 -25 -11 -70 -48 -125 -105 -88 -94 -115
-110 -174 -110 -39 0 -103 19 -103 31 0 17 129 168 228 268 120 119 253 232
515 435 153 119 187 147 175 146 -2 0 -33 -13 -69 -29z m-660 -947 c33 -14 34
-14 27 -65 -4 -29 -16 -80 -28 -115 -20 -61 -21 -63 -62 -69 -123 -21 -320
-104 -416 -177 -28 -21 -52 -38 -55 -38 -8 0 -25 76 -25 116 0 226 338 437
559 348z m-154 -371 c-56 -50 -133 -83 -215 -92 -38 -4 -70 -4 -70 -1 0 14 87
54 193 90 62 21 117 38 122 39 6 0 -8 -16 -30 -36z m-465 -252 c0 -29 -61 -78
-119 -96 -24 -7 -24 -6 7 36 18 24 42 49 55 56 26 14 57 17 57 4z"/>
<path d="M6083 10315 c-18 -8 -33 -21 -33 -29 0 -44 116 -63 161 -27 21 16 22
22 11 45 -10 23 -17 26 -59 26 -27 -1 -63 -7 -80 -15z"/>
<path d="M6095 10176 c-17 -7 -39 -21 -48 -30 -35 -35 -22 -41 104 -44 104 -3
123 -1 140 14 29 26 24 50 -12 63 -43 15 -147 13 -184 -3z"/>
<path d="M7012 10150 c-40 -9 -74 -19 -76 -21 -8 -9 14 -49 27 -49 8 0 34 7
57 15 23 8 58 15 77 15 29 0 34 3 31 21 -5 33 -36 38 -116 19z"/>
<path d="M6562 10144 c-38 -27 -28 -44 27 -44 61 0 96 13 111 40 10 19 8 20
-52 20 -41 0 -71 -5 -86 -16z"/>
<path d="M3772 10101 c-28 -10 -61 -26 -72 -36 -17 -15 -25 -16 -64 -6 -126
31 -251 -5 -447 -130 l-76 -49 -7 -58 c-10 -80 -28 -109 -144 -226 -111 -112
-121 -135 -77 -176 30 -28 61 -25 174 19 111 43 145 46 256 25 119 -22 177
-13 310 50 165 79 292 204 325 322 l14 48 -35 28 c-19 15 -54 43 -79 61 -45
33 -58 60 -41 86 6 10 13 11 29 2 11 -6 63 -11 114 -11 l93 1 -28 24 c-53 47
-153 58 -245 26z m28 -150 c41 -15 45 -19 41 -46 -12 -106 -83 -196 -183 -233
-58 -22 -210 -42 -327 -43 -36 0 -83 -3 -105 -7 l-38 -7 20 -25 c19 -24 26
-25 118 -25 63 0 99 -4 101 -11 6 -18 -42 -23 -158 -17 l-107 6 -5 41 c-16
113 56 239 176 310 133 77 341 103 467 57z m-692 -398 c-2 -10 -18 -25 -36
-34 -19 -8 -37 -21 -42 -28 -11 -19 -30 -4 -30 24 0 28 39 54 83 55 22 0 28
-4 25 -17z"/>
<path d="M2925 10071 c-82 -39 -174 -110 -238 -184 -73 -84 -111 -136 -104
-143 13 -13 98 45 172 116 45 44 107 91 142 110 34 18 68 42 76 54 17 26 30
76 20 76 -5 0 -35 -13 -68 -29z"/>
<path d="M6785 10089 c-60 -14 -105 -59 -105 -106 l0 -23 83 30 c77 28 137 72
137 100 0 12 -60 11 -115 -1z"/>
<path d="M7146 10035 c-85 -18 -151 -49 -237 -115 -62 -46 -126 -116 -117
-125 6 -6 120 37 213 80 131 61 228 93 319 107 47 6 86 15 86 20 0 4 -15 15
-32 24 -44 23 -147 27 -232 9z"/>
<path d="M4023 9998 c-21 -7 -33 -17 -33 -29 0 -32 33 -89 51 -89 26 0 76 46
83 76 13 49 -27 66 -101 42z"/>
<path d="M7351 9855 c-249 -40 -347 -74 -411 -140 -39 -40 -39 -40 21 -20 24
8 112 26 196 39 195 33 297 71 332 128 6 10 10 18 9 17 -2 -1 -68 -11 -147
-24z"/>
<path d="M2193 9824 c-18 -24 -31 -44 -28 -44 2 0 23 7 45 16 35 14 41 21 38
42 -5 39 -20 35 -55 -14z"/>
<path d="M2917 9805 c-56 -19 -110 -58 -149 -107 -38 -48 -81 -118 -75 -124 5
-5 122 71 174 113 39 31 101 118 92 128 -2 2 -21 -3 -42 -10z"/>
<path d="M7592 9775 c-51 -16 -71 -31 -83 -64 -13 -32 2 -41 72 -41 80 0 153
24 194 66 19 19 35 39 35 44 0 15 -168 11 -218 -5z"/>
<path d="M6597 9750 c-15 -4 -78 -29 -140 -54 -63 -25 -121 -46 -130 -46 -9 0
-24 -16 -33 -36 -9 -19 -46 -61 -81 -92 -35 -31 -74 -73 -88 -92 -23 -34 -51
-127 -41 -138 3 -2 51 39 106 91 214 204 380 296 533 297 43 0 46 9 14 45 -25
30 -90 41 -140 25z"/>
<path d="M1965 9600 c-257 -221 -339 -320 -391 -469 -20 -57 -35 -80 -79 -122
-58 -55 -98 -124 -93 -161 3 -20 8 -16 43 32 22 30 100 117 173 194 116 121
242 273 242 290 0 17 -40 2 -65 -24 -15 -16 -32 -27 -37 -24 -17 10 -7 23 30
40 54 26 166 143 254 267 43 59 76 107 75 106 -1 0 -69 -59 -152 -129z"/>
<path d="M6788 9576 c-14 -214 -200 -355 -470 -356 l-86 0 5 -39 c6 -47 -10
-60 -93 -68 -45 -5 -54 -3 -54 10 0 9 11 24 25 33 15 10 25 26 25 40 0 13 -2
24 -4 24 -23 0 -200 -41 -228 -53 -45 -19 -80 -70 -76 -112 3 -28 6 -30 53
-37 167 -22 402 0 558 52 123 41 205 89 286 165 106 100 151 202 151 343 l0
72 -44 0 -43 0 -5 -74z"/>
<path d="M7320 9600 c-26 -26 -25 -34 5 -48 59 -27 145 2 145 49 0 17 -7 19
-65 19 -52 0 -69 -4 -85 -20z"/>
<path d="M7657 9555 c-156 -39 -339 -178 -366 -277 -12 -42 -11 -51 5 -84 23
-45 44 -56 44 -21 0 33 68 135 121 180 100 86 244 133 326 107 71 -23 132
-104 133 -176 0 -28 -8 -35 -107 -95 -59 -35 -125 -72 -148 -81 -44 -18 -149
-23 -188 -9 -24 9 -24 9 -20 -33 4 -36 1 -46 -25 -74 -17 -18 -40 -32 -53 -32
l-22 0 20 23 c20 21 49 102 35 95 -119 -53 -272 -157 -272 -186 0 -24 76 -37
215 -37 115 0 155 4 225 23 208 56 391 187 439 315 38 105 25 170 -54 255 -90
97 -198 134 -308 107z"/>
<path d="M8100 9526 c0 -12 32 -70 57 -102 13 -18 42 -44 63 -58 33 -22 40
-23 40 -10 0 28 -38 80 -88 120 -68 54 -72 57 -72 50z"/>
<path d="M4845 9401 c-46 -20 -65 -53 -65 -111 0 -39 0 -39 32 -30 44 13 74
45 92 98 9 25 16 49 16 54 0 13 -32 9 -75 -11z"/>
<path d="M5078 9353 c-25 -31 -119 -84 -243 -138 -232 -101 -291 -137 -337
-207 -23 -33 -28 -52 -28 -97 1 -31 6 -66 13 -79 13 -22 14 -20 36 34 63 150
264 265 466 267 61 1 107 -5 141 -16 58 -20 127 -74 149 -118 15 -28 15 -29
-18 -43 -20 -8 -52 -38 -78 -72 -64 -85 -107 -104 -261 -114 -70 -4 -140 -15
-160 -23 -37 -16 -64 -50 -53 -67 10 -16 67 -11 111 9 68 31 99 34 136 15 l33
-17 -55 -26 c-47 -22 -68 -26 -150 -26 -76 1 -105 5 -144 23 -63 29 -71 28
-136 -13 -57 -37 -90 -44 -109 -22 -16 20 6 37 45 37 35 0 47 10 39 32 -5 12
-96 42 -214 71 -37 9 -45 9 -56 -6 -18 -25 -29 -122 -16 -146 26 -47 185 -98
337 -108 282 -17 622 111 803 302 l51 54 -2 113 c-4 142 8 168 75 168 l42 -1
-33 -27 c-22 -18 -32 -36 -32 -54 0 -26 3 -28 41 -28 57 0 99 42 99 98 0 34
-4 41 -24 46 -15 4 -26 14 -28 29 -2 18 -10 22 -43 25 -40 2 -52 -3 -134 -63
-78 -57 -111 -13 -41 56 43 43 48 60 25 79 -21 18 -53 3 -112 -53 -49 -46 -59
-51 -101 -51 -63 -1 -65 19 -8 83 26 29 46 56 46 60 0 5 -13 14 -29 19 -24 8
-32 7 -43 -5z"/>
<path d="M8720 8736 c0 -68 13 -92 45 -80 34 13 1 144 -37 144 -4 0 -8 -29 -8
-64z"/>
<path d="M9190 8688 c-21 -44 -100 -78 -181 -78 -37 0 -79 4 -92 9 -23 9 -24
8 -23 -29 1 -54 -27 -83 -76 -78 -21 2 -38 3 -38 2 0 -1 8 -19 17 -40 13 -30
17 -77 19 -206 2 -143 6 -174 23 -213 19 -44 20 -50 6 -108 -34 -145 -1 -264
78 -279 44 -8 52 3 52 71 l0 65 57 33 c150 88 238 279 238 520 0 97 -24 238
-53 318 l-15 40 -12 -27z m-62 -120 c91 -95 94 -291 6 -467 -40 -80 -116 -155
-172 -170 -20 -6 -37 -9 -39 -7 -2 2 1 16 7 31 7 19 7 45 0 83 -15 84 -14 87
28 52 l37 -31 2 33 c1 18 8 75 14 125 10 81 9 96 -4 117 -9 14 -26 27 -37 31
-42 13 -15 88 62 175 29 33 55 60 59 60 3 0 19 -15 37 -32z"/>
<path d="M6846 8555 c-15 -8 -55 -40 -88 -70 -51 -47 -65 -55 -99 -55 -21 0
-39 -4 -39 -9 0 -25 21 -61 48 -80 l29 -20 79 77 c87 84 124 131 124 156 0 20
-17 20 -54 1z"/>
<path d="M9366 8503 c-19 -116 0 -248 56 -393 72 -189 86 -235 108 -366 11
-71 28 -158 37 -194 16 -66 70 -186 79 -177 12 12 -117 991 -132 1006 -3 3 -3
-51 -2 -120 2 -92 -1 -130 -11 -148 l-14 -25 -22 28 c-34 42 -45 94 -55 239
-7 115 -20 187 -33 187 -3 0 -7 -17 -11 -37z"/>
<path d="M6915 8468 c-20 -24 -71 -97 -112 -163 -42 -66 -92 -140 -111 -165
-20 -25 -37 -47 -39 -49 -8 -11 -28 23 -38 62 -8 35 -14 42 -35 42 -21 0 -30
-11 -57 -65 -17 -36 -34 -77 -37 -92 l-6 -28 70 0 70 0 21 -42 c15 -28 24 -68
27 -116 4 -66 2 -78 -27 -137 -21 -42 -50 -80 -84 -110 -64 -56 -208 -128
-301 -151 -57 -14 -77 -25 -115 -63 -80 -79 -100 -91 -153 -91 -47 0 -47 0
-36 25 7 17 29 31 67 46 68 25 91 44 91 76 0 20 -5 23 -36 23 -43 0 -61 -9
-131 -66 -30 -24 -60 -44 -68 -44 -19 0 -19 -28 0 -73 19 -47 20 -44 -19 -51
-86 -16 -169 -110 -182 -207 -11 -85 21 -118 84 -85 43 22 68 55 111 146 22
47 46 92 53 101 11 13 41 17 158 22 165 6 236 21 355 77 300 139 423 409 325
707 -10 32 -17 59 -16 61 2 1 17 -5 34 -15 17 -10 33 -15 36 -12 3 2 -1 23 -9
44 -8 22 -14 49 -14 60 -1 38 48 121 118 199 73 83 90 120 71 155 -15 29 -24
27 -65 -21z m-495 -1073 l0 -45 -50 0 c-28 0 -50 5 -50 10 0 19 33 62 54 70
40 16 46 12 46 -35z"/>
<path d="M7204 8482 c-107 -78 -204 -224 -204 -309 0 -68 21 -98 35 -50 4 12
54 92 110 177 110 165 134 210 111 210 -7 0 -31 -13 -52 -28z"/>
<path d="M2671 8440 c-11 -53 -4 -86 23 -109 13 -11 22 -7 61 24 36 30 45 44
45 69 0 27 -6 35 -35 49 -20 9 -46 17 -60 17 -20 0 -25 -7 -34 -50z"/>
<path d="M3222 8417 c-33 -40 -33 -40 -96 -38 -111 4 -226 -24 -326 -78 -74
-40 -181 -157 -224 -245 -62 -127 -79 -216 -74 -374 l5 -133 -78 -39 c-81 -41
-109 -69 -109 -107 0 -22 2 -23 103 -23 126 0 219 19 314 64 235 112 405 339
527 708 24 73 50 159 57 190 12 56 11 58 -12 78 -47 40 -52 40 -87 -3z m-104
-165 c41 -15 47 -22 50 -49 2 -20 -9 -59 -27 -102 -18 -40 -31 -86 -31 -110 0
-36 -4 -43 -27 -53 -16 -6 -69 -30 -119 -54 -116 -55 -182 -122 -210 -213
l-18 -61 -97 0 -98 0 15 53 c111 388 225 565 389 608 40 11 116 2 173 -19z
m-463 -714 c46 -21 26 -48 -35 -48 -39 0 -73 34 -53 53 10 11 60 8 88 -5z"/>
<path d="M7479 8435 c-133 -68 -243 -226 -318 -454 -28 -87 -28 -92 8 -80 39
14 57 42 82 136 21 76 24 81 121 180 74 77 107 119 130 168 17 36 29 68 27 70
-2 1 -24 -7 -50 -20z"/>
<path d="M2500 8351 c-17 -33 -12 -116 8 -134 25 -23 39 -21 67 8 21 20 25 34
25 85 l0 60 -45 0 c-34 0 -47 -5 -55 -19z"/>
<path d="M7935 8303 c-30 -116 -50 -132 -113 -93 -18 11 -35 20 -37 20 -11 0
-4 -59 11 -103 15 -44 15 -49 0 -72 -21 -32 -43 -23 -63 26 -19 48 -56 55 -75
14 -10 -22 -6 -32 31 -87 36 -54 41 -68 36 -98 -11 -57 -59 -150 -120 -235
-170 -232 -191 -269 -211 -366 -38 -181 38 -135 106 65 16 47 41 108 56 135
28 53 70 98 80 88 3 -3 -2 -38 -11 -78 -19 -86 -21 -158 -6 -188 11 -19 78
-61 99 -61 5 0 21 29 36 64 41 96 46 99 178 100 103 1 118 4 173 30 85 42 190
150 237 246 87 177 101 381 34 526 l-22 49 -56 0 c-47 0 -62 5 -94 31 -71 57
-114 70 -114 35 0 -27 -10 -51 -22 -51 -6 0 -28 16 -49 35 -22 19 -45 35 -53
35 -8 0 -20 -26 -31 -67z m293 -96 c13 -6 36 -32 50 -57 23 -39 27 -56 27
-125 0 -65 -5 -89 -24 -125 -49 -93 -186 -197 -318 -241 -35 -11 -63 -26 -63
-34 0 -7 7 -29 16 -50 8 -20 12 -40 9 -43 -3 -4 -33 -12 -67 -19 -33 -7 -89
-26 -124 -42 -75 -35 -75 -22 1 47 41 37 46 47 41 70 -19 77 -23 126 -17 218
l6 101 51 59 c126 144 232 229 312 249 48 13 59 12 100 -8z"/>
<path d="M6417 8223 c-3 -5 -10 -28 -17 -53 -14 -54 -35 -80 -66 -80 -22 0
-22 1 -8 28 28 53 8 101 -36 87 -27 -9 -40 -43 -40 -108 0 -61 -20 -97 -55
-97 -23 0 -24 3 -27 73 -3 69 -4 72 -29 75 -25 3 -27 0 -34 -55 -7 -64 -38
-143 -54 -143 -6 0 -19 17 -28 37 -10 21 -26 39 -36 41 -14 3 -17 -4 -17 -40
-1 -65 -18 -101 -112 -238 -93 -138 -115 -196 -105 -281 11 -89 19 -86 65 19
113 261 286 433 515 513 45 16 90 29 100 29 12 0 17 8 17 29 0 15 14 54 31 86
17 31 29 58 27 59 -2 0 -13 7 -25 14 -25 13 -59 16 -66 5z"/>
<path d="M7516 8117 c-3 -13 -45 -80 -94 -150 -52 -73 -94 -145 -102 -172 -15
-54 -9 -116 16 -153 l18 -27 8 44 c9 55 54 152 106 228 77 114 98 170 81 220
-12 39 -25 42 -33 10z"/>
<path d="M1185 8071 c-78 -35 -144 -123 -243 -322 -50 -101 -89 -185 -86 -188
10 -11 94 43 120 77 15 19 48 86 74 148 84 200 128 254 208 254 31 0 44 5 52
19 5 11 10 22 10 25 0 14 -98 4 -135 -13z"/>
<path d="M6910 7980 c0 -25 4 -30 25 -30 21 0 25 5 25 30 0 25 -4 30 -25 30
-21 0 -25 -5 -25 -30z"/>
<path d="M9362 7802 c15 -68 18 -122 16 -250 -2 -114 0 -162 8 -162 21 0 66
43 80 76 18 44 18 122 -2 198 -17 66 -75 185 -103 210 -16 14 -16 10 1 -72z"/>
<path d="M9227 7773 c-3 -16 -11 -90 -18 -165 -10 -109 -10 -148 0 -192 7 -31
17 -56 22 -56 18 0 49 91 60 180 13 97 2 194 -26 236 -20 31 -31 30 -38 -3z"/>
<path d="M1522 7690 c-40 -51 -64 -117 -61 -170 3 -47 1 -50 -49 -96 -113
-101 -170 -258 -158 -438 4 -55 7 -109 7 -120 0 -10 -23 -52 -50 -93 -57 -84
-62 -102 -28 -96 13 3 41 -2 62 -11 52 -22 72 -20 114 12 20 16 87 57 150 93
135 76 207 143 269 251 64 113 85 180 86 273 1 60 -4 90 -18 119 -21 42 -80
106 -98 106 -8 0 -9 -42 -4 -149 5 -103 3 -163 -5 -196 -12 -48 -17 -50 -71
-30 -22 9 -66 -32 -93 -85 -30 -59 -77 -100 -116 -100 -38 0 -38 20 2 65 34
38 27 50 -27 43 -21 -2 -33 -14 -53 -52 -48 -88 -61 -55 -36 88 34 204 58 243
204 340 56 38 113 83 127 101 25 33 50 102 40 112 -3 3 -26 -2 -52 -11 -26 -9
-53 -16 -60 -16 -6 0 -21 20 -33 45 -12 25 -22 45 -24 44 -1 0 -12 -13 -25
-29z"/>
<path d="M5507 7683 c-4 -3 -7 -17 -7 -30 0 -16 6 -23 19 -23 26 0 34 15 21
40 -11 21 -22 25 -33 13z"/>
<path d="M1034 7613 c-14 -42 -66 -146 -122 -248 -73 -129 -104 -217 -100
-277 l3 -43 72 115 c102 164 184 330 190 383 7 63 -27 118 -43 70z"/>
<path d="M1327 7592 c-39 -42 -49 -126 -19 -161 17 -21 17 -21 55 36 43 65 47
105 15 127 -28 20 -31 20 -51 -2z"/>
<path d="M4207 7562 c-10 -10 -17 -28 -17 -40 0 -23 24 -52 44 -52 13 0 36 55
36 88 0 28 -40 30 -63 4z"/>
<path d="M4030 7475 c-9 -16 -11 -43 -7 -83 5 -50 3 -62 -12 -76 -34 -31 -51
-21 -51 33 0 58 -16 76 -53 62 -62 -24 -82 -157 -31 -207 l25 -26 -54 -93
c-54 -93 -54 -93 -50 -162 3 -40 -1 -106 -10 -160 -12 -68 -14 -106 -7 -149
12 -70 4 -82 -82 -125 -62 -31 -78 -51 -78 -98 l0 -31 79 0 c146 0 322 43 435
106 112 63 266 240 345 400 124 250 118 448 -17 522 -34 19 -46 21 -57 12 -22
-18 -18 -53 10 -91 67 -93 68 -119 8 -241 -47 -95 -157 -205 -318 -319 -65
-46 -126 -88 -133 -93 -17 -10 -108 30 -117 52 -3 8 6 37 20 66 18 37 28 79
35 156 15 157 18 170 44 179 12 5 55 45 95 90 89 98 119 117 198 124 34 3 66
8 72 12 19 11 13 73 -10 96 -23 23 -53 20 -128 -12 -24 -10 -53 -19 -65 -18
-11 0 -15 3 -8 6 20 8 14 48 -11 71 -30 29 -51 28 -67 -3z m36 -918 c14 -13
-11 -41 -47 -53 -19 -6 -64 -14 -101 -17 -66 -5 -68 -4 -68 19 0 13 9 33 21
45 19 19 30 21 104 17 46 -1 87 -7 91 -11z"/>
<path d="M9030 7394 l0 -45 43 3 c42 3 42 3 45 46 l3 42 -45 0 -46 0 0 -46z"/>
<path d="M681 7323 c-88 -118 -152 -282 -150 -384 l1 -54 13 49 c8 28 50 124
94 215 69 144 103 231 88 231 -2 0 -23 -26 -46 -57z"/>
<path d="M8890 7356 c0 -39 20 -84 41 -89 31 -8 50 20 48 69 l-3 44 -43 0
c-38 0 -43 -2 -43 -24z"/>
<path d="M9065 7278 c-125 -92 -244 -281 -352 -555 -71 -184 -185 -611 -209
-787 -7 -45 -6 -48 12 -38 63 34 94 102 106 231 16 177 18 187 48 235 16 25
34 46 39 46 5 0 9 -20 9 -46 0 -35 9 -60 41 -113 68 -112 57 -176 -61 -340
-34 -47 -69 -104 -79 -126 -18 -40 -26 -126 -11 -124 24 1 153 209 193 312 43
110 66 202 81 320 l12 97 83 44 c133 71 193 115 289 210 106 106 156 195 174
311 11 75 -4 204 -32 261 -17 37 -150 96 -228 102 -52 4 -58 2 -115 -40z m196
-90 c54 -18 107 -57 113 -84 4 -14 -3 -65 -16 -114 -20 -82 -23 -88 -41 -78
-19 10 -20 37 -1 106 4 15 2 22 -8 22 -29 0 -58 -42 -79 -113 -26 -88 -47
-111 -154 -171 -47 -27 -95 -56 -108 -66 -21 -18 -21 -20 -5 -36 17 -17 20
-17 53 -1 72 35 96 14 49 -42 -40 -47 -131 -64 -218 -40 l-38 11 7 56 c19 153
109 370 192 462 77 85 169 118 254 88z m-420 -780 c-12 -29 -25 -44 -39 -46
-20 -3 -21 -1 -10 30 14 44 27 58 49 58 18 0 18 -1 0 -42z"/>
<path d="M9540 7208 c0 -124 15 -174 57 -189 21 -8 22 -6 18 34 -2 23 -7 82
-10 132 -6 91 -22 135 -50 135 -12 0 -15 -20 -15 -112z"/>
<path d="M5695 7263 c-19 -25 -34 -48 -32 -50 9 -8 97 31 117 52 27 28 19 45
-20 45 -23 0 -37 -10 -65 -47z"/>
<path d="M8810 7275 c-17 -45 17 -95 64 -95 13 0 16 12 16 60 l0 60 -35 0
c-29 0 -37 -5 -45 -25z"/>
<path d="M8750 7096 c0 -40 25 -68 34 -38 4 11 15 27 26 37 29 27 25 35 -20
35 -39 0 -40 -1 -40 -34z"/>
<path d="M1080 7053 c-7 -21 -37 -80 -66 -132 -56 -100 -72 -157 -54 -190 15
-29 23 -26 41 12 9 17 41 80 72 139 58 110 72 169 45 196 -18 18 -23 15 -38
-25z"/>
<path d="M8461 7019 c-31 -29 -41 -60 -48 -153 -5 -71 -10 -85 -36 -115 -37
-43 -77 -127 -77 -163 0 -27 38 -65 51 -50 3 4 32 79 64 167 32 88 75 199 96
248 l38 87 -33 0 c-19 0 -41 -9 -55 -21z"/>
<path d="M8612 6923 c-12 -32 -41 -123 -67 -202 -76 -240 -131 -334 -194 -334
-25 0 -30 -5 -35 -33 -4 -18 -31 -65 -60 -106 -50 -69 -84 -138 -68 -138 11 0
55 32 69 50 7 8 28 42 47 75 19 33 44 69 57 80 l22 20 -6 -50 c-3 -27 -22 -85
-42 -127 -45 -95 -53 -143 -30 -187 9 -18 18 -31 20 -29 6 7 74 177 105 263
17 50 49 157 70 238 34 130 46 161 100 252 68 115 94 211 72 260 -18 40 -38
30 -60 -32z"/>
<path d="M9861 6918 c-7 -18 -23 -84 -36 -147 -25 -115 -47 -166 -68 -158 -7
3 -11 9 -10 15 2 6 6 36 9 65 6 48 4 57 -17 78 l-23 23 -7 -34 c-24 -116 -51
-391 -51 -515 0 -139 9 -204 37 -272 l15 -36 19 24 c67 85 138 260 172 421 28
134 30 342 5 476 -10 50 -22 92 -26 92 -4 0 -13 -15 -19 -32z m-4 -424 c8 -71
-20 -190 -70 -297 -49 -107 -62 -103 -62 21 0 77 6 105 50 241 l50 153 13 -33
c8 -18 16 -57 19 -85z"/>
<path d="M8144 6890 c-11 -4 -34 -24 -51 -43 -31 -35 -48 -89 -78 -242 -8 -44
-18 -91 -21 -103 -7 -24 -7 -24 25 -8 36 19 73 71 96 136 13 35 65 250 65 267
0 5 -13 3 -36 -7z"/>
<path d="M7639 6836 c-141 -104 -204 -254 -254 -606 -21 -148 -28 -177 -45
-190 -174 -127 -244 -240 -257 -414 -6 -79 -7 -82 -60 -146 -115 -139 -144
-254 -82 -325 17 -19 39 -35 48 -35 24 0 64 46 96 110 54 108 51 106 167 113
133 8 213 28 318 79 69 33 101 57 176 132 76 77 98 106 137 186 52 105 84 218
94 326 l6 72 -39 25 c-105 69 -280 63 -486 -18 -15 -6 -18 -1 -18 31 0 127 41
251 162 497 53 108 94 197 90 197 -4 0 -28 -16 -53 -34z m200 -763 c12 -32 24
-75 27 -98 5 -37 3 -42 -32 -65 -21 -14 -80 -73 -131 -132 -52 -59 -115 -126
-141 -149 -79 -70 -206 -119 -308 -119 -19 0 -34 -4 -34 -9 0 -10 24 -21 45
-21 8 0 26 -5 42 -11 37 -14 21 -23 -92 -49 -104 -24 -130 -37 -155 -75 -16
-25 -20 -26 -26 -12 -9 24 37 81 85 104 l38 18 7 86 c23 306 177 485 486 564
52 13 111 24 131 25 35 0 37 -2 58 -57z"/>
<path d="M7212 5628 c6 -43 103 -50 116 -8 3 8 1 12 -3 8 -4 -4 -23 -1 -42 7
-52 22 -75 20 -71 -7z"/>
<path d="M9507 6738 c-2 -73 -8 -143 -12 -155 -6 -19 -4 -23 12 -23 57 0 92
137 63 242 -11 37 -33 68 -50 68 -4 0 -10 -60 -13 -132z"/>
<path d="M675 6823 c-44 -23 -65 -44 -86 -85 -22 -43 -36 -118 -22 -118 31 0
101 99 151 213 5 11 -10 8 -43 -10z"/>
<path d="M831 6818 c-5 -13 -23 -54 -41 -93 -152 -335 -230 -613 -230 -818 l1
-102 55 185 c84 283 188 585 249 721 30 68 55 125 55 126 0 2 -18 3 -40 3 -33
0 -42 -4 -49 -22z"/>
<path d="M7295 6732 c-35 -56 -83 -188 -72 -199 11 -10 55 7 85 32 57 48 88
146 62 194 -20 38 -38 32 -75 -27z"/>
<path d="M7820 6750 c-24 -48 -42 -122 -69 -293 -12 -70 -28 -144 -36 -164 -8
-20 -14 -38 -11 -40 2 -2 17 8 33 21 41 34 66 97 98 246 15 69 39 148 54 175
14 28 27 53 29 57 4 7 -51 38 -67 38 -6 0 -20 -18 -31 -40z"/>
<path d="M9227 6523 c-12 -19 -27 -133 -27 -200 0 -78 10 -91 44 -54 55 60 62
220 12 253 -14 10 -24 10 -29 1z"/>
<path d="M994 6428 c-56 -60 -99 -139 -133 -245 -39 -119 -65 -303 -42 -288
25 15 18 -23 -19 -106 -60 -133 -102 -272 -171 -559 -33 -140 -69 -285 -79
-322 -10 -38 -15 -68 -9 -68 11 0 64 71 89 120 32 63 59 160 95 344 55 282 90
389 153 466 18 22 18 27 6 63 -19 53 -18 161 2 227 9 29 37 103 64 164 52 119
94 236 87 242 -2 3 -22 -15 -43 -38z"/>
<path d="M6054 6439 c-4 -7 -13 -43 -20 -82 -12 -64 -35 -107 -55 -107 -4 0
-9 26 -11 58 -3 50 -6 57 -25 60 -33 5 -53 -33 -53 -103 0 -63 -18 -105 -45
-105 -12 0 -12 6 1 35 18 43 12 55 -27 55 -42 0 -47 -24 -16 -81 30 -53 27
-76 -11 -86 -20 -5 -30 0 -51 26 -18 21 -35 31 -53 31 -33 0 -32 2 -12 -40 23
-44 14 -126 -27 -270 -42 -144 -46 -254 -13 -310 l21 -36 -43 -29 c-84 -58
-110 -158 -66 -258 11 -26 23 -47 27 -47 3 0 52 38 110 85 156 126 261 174
420 190 l71 7 82 126 c97 149 195 342 217 427 44 172 -1 274 -135 308 -53 14
-54 15 -70 68 -13 40 -23 55 -38 57 -23 4 -35 -8 -66 -63 -26 -47 -62 -63 -46
-20 5 14 10 42 10 61 0 28 -5 36 -26 44 -33 13 -41 13 -50 -1z m241 -219 c87
-60 110 -143 64 -236 -14 -31 -70 -97 -148 -176 l-124 -128 -78 0 c-74 0 -80
-2 -114 -31 -20 -18 -59 -70 -86 -117 -69 -116 -91 -144 -139 -171 l-40 -22 0
21 c0 12 18 40 40 62 22 23 40 44 40 47 1 3 3 62 5 131 10 353 158 548 480
635 28 8 51 14 53 14 2 1 23 -12 47 -29z m-130 -552 c14 -6 25 -17 25 -25 0
-21 -69 -92 -117 -120 -39 -23 -150 -63 -174 -63 -33 0 32 76 110 130 31 21
67 50 80 64 27 29 39 31 76 14z"/>
<path d="M9395 6418 c-4 -18 -25 -98 -46 -178 -42 -156 -56 -255 -44 -316 l7
-38 18 24 c35 47 61 146 114 433 12 68 12 80 -1 92 -23 24 -41 17 -48 -17z"/>
<path d="M1172 6378 c-6 -24 -43 -108 -82 -187 -38 -78 -70 -146 -70 -151 0
-42 104 59 145 140 26 52 55 144 55 176 0 12 -8 32 -18 45 l-19 22 -11 -45z"/>
<path d="M6410 6341 c-5 -11 -10 -22 -10 -25 0 -9 32 -36 43 -36 13 0 37 45
37 67 0 21 -58 16 -70 -6z"/>
<path d="M7560 6348 c0 -6 -9 -30 -20 -53 -30 -62 -11 -92 40 -65 16 8 67 101
58 104 -2 1 -13 7 -25 14 -29 15 -53 16 -53 0z"/>
<path d="M7881 6333 c-17 -16 -33 -41 -37 -57 -7 -28 -6 -28 27 -21 69 15 109
48 109 89 0 28 -65 20 -99 -11z"/>
<path d="M9562 6310 c-6 -30 -18 -95 -27 -145 -36 -204 -68 -287 -142 -366
-59 -63 -126 -89 -228 -89 -41 0 -75 2 -75 5 0 3 18 39 40 79 42 76 52 134 27
154 -11 9 -16 1 -26 -38 -17 -68 -79 -159 -170 -255 -191 -199 -221 -246 -221
-350 0 -36 3 -65 8 -65 4 0 31 36 61 80 69 103 189 216 274 258 73 36 201 72
257 72 32 0 39 -4 48 -27 50 -132 42 -248 -25 -381 -72 -143 -243 -247 -358
-218 -26 7 -26 8 -11 25 10 10 52 34 94 52 42 18 89 44 104 57 26 24 46 77 34
89 -9 10 -87 -27 -261 -122 -198 -109 -245 -131 -245 -113 1 18 29 51 68 77
21 15 32 31 32 46 0 81 -121 11 -161 -93 -31 -83 -31 -203 2 -268 13 -26 29
-48 34 -48 6 -1 28 35 50 80 62 123 70 134 108 134 17 0 40 -6 49 -14 16 -11
14 -17 -19 -72 -41 -69 -62 -96 -203 -265 -116 -139 -194 -259 -176 -271 6 -4
41 -8 78 -8 37 0 70 -5 73 -10 11 -17 -84 -117 -220 -233 -165 -141 -246 -223
-296 -300 -45 -70 -38 -82 28 -48 45 23 81 60 152 158 32 44 92 105 159 161
59 49 148 132 198 183 87 91 267 309 260 316 -2 2 -33 -10 -70 -26 -63 -29
-187 -71 -208 -71 -5 0 9 21 31 46 23 26 69 94 104 152 94 159 167 232 257
260 47 14 120 22 120 13 0 -4 -24 -34 -53 -67 -69 -77 -94 -113 -103 -150 -5
-24 10 -12 87 70 327 346 470 591 514 883 17 115 20 232 5 217 -6 -6 -19 -53
-31 -105 -26 -121 -35 -135 -89 -136 l-43 -1 6 47 c5 46 41 155 113 346 32 86
37 112 38 185 1 69 -3 93 -20 125 l-22 39 -10 -54z"/>
<path d="M7996 6240 c-27 -69 -23 -80 29 -80 l46 0 -3 58 c-3 53 -5 57 -29 60
-23 3 -29 -3 -43 -38z"/>
<path d="M9021 6178 c-18 -110 -65 -208 -183 -385 -100 -149 -177 -288 -166
-299 10 -9 176 174 228 251 66 98 138 250 179 378 40 126 40 127 -8 127 l-38
0 -12 -72z"/>
<path d="M7256 6178 c-31 -44 -15 -128 24 -128 15 0 20 7 20 25 0 13 7 40 16
59 9 19 14 41 11 50 -9 24 -53 20 -71 -6z"/>
<path d="M1255 6136 c-28 -28 -45 -84 -45 -148 0 -41 3 -48 20 -48 10 0 34 13
53 30 33 29 49 67 62 148 l7 42 -37 0 c-24 0 -43 -7 -60 -24z"/>
<path d="M2585 6119 c-5 -6 -25 -19 -42 -30 -48 -28 -45 -62 7 -83 75 -30 100
-15 100 61 0 54 -35 82 -65 52z"/>
<path d="M2798 6113 c-28 -32 -40 -65 -35 -92 5 -24 0 -29 -65 -59 -83 -40
-193 -145 -246 -234 -74 -124 -109 -281 -98 -438 3 -52 9 -107 12 -121 5 -24
1 -28 -85 -63 -62 -26 -100 -48 -120 -72 -29 -32 -49 -79 -39 -89 2 -3 40 -10
83 -16 124 -17 236 2 365 63 71 34 100 55 175 132 75 75 99 108 138 186 67
135 89 227 90 375 0 164 -34 285 -113 400 -34 50 -40 53 -62 28z m41 -244 c13
-60 15 -369 2 -369 -5 0 -62 -47 -127 -105 -114 -101 -188 -148 -254 -161 -28
-6 -30 -4 -30 22 0 52 29 208 49 264 53 153 106 236 223 355 l89 90 19 -23
c10 -12 23 -45 29 -73z"/>
<path d="M9988 6053 c-55 -101 -100 -301 -133 -583 -8 -74 -17 -153 -20 -175
-4 -35 -4 -37 6 -15 24 58 120 374 143 476 28 120 48 298 37 327 -6 15 -12 10
-33 -30z"/>
<path d="M9795 5955 c-16 -66 -72 -281 -126 -477 l-97 -358 -81 -76 c-105 -98
-208 -236 -317 -422 -237 -402 -222 -382 -287 -407 -122 -48 -209 -140 -313
-328 -116 -210 -147 -263 -188 -316 l-41 -54 0 -114 0 -114 -53 -60 c-29 -34
-100 -106 -158 -160 -147 -139 -267 -279 -251 -295 9 -9 136 94 236 190 57 56
160 166 229 246 68 80 167 191 220 248 79 87 99 103 121 100 22 -3 27 -9 31
-42 6 -49 24 -56 44 -18 37 71 196 180 288 197 35 7 36 6 31 -16 -4 -13 -48
-67 -98 -119 -109 -114 -125 -135 -125 -174 l0 -30 36 35 c62 59 186 211 241
296 64 98 172 317 179 364 4 26 0 42 -20 69 -46 63 -48 75 -26 141 29 86 61
139 226 375 170 242 214 325 214 399 l0 50 -26 -50 c-68 -128 -167 -255 -318
-405 l-105 -104 19 -21 c41 -43 10 -142 -66 -218 -45 -45 -73 -53 -125 -38
-63 19 -64 37 -10 111 26 36 91 135 144 220 211 341 284 444 398 559 l54 55 1
80 c1 97 8 122 89 341 69 187 91 287 80 368 -14 102 -21 99 -50 -28z m-654
-1787 c33 -59 33 -153 -1 -223 -32 -65 -105 -136 -177 -172 -48 -23 -71 -28
-134 -28 -67 0 -81 3 -116 28 -22 15 -49 43 -59 62 l-18 34 38 56 c54 81 152
175 224 213 48 25 173 68 213 71 3 1 16 -18 30 -41z m-601 -558 c0 -10 -22
-45 -50 -76 -27 -31 -50 -63 -50 -71 0 -18 -17 -16 -24 3 -12 31 -5 44 52 108
57 64 72 71 72 36z"/>
<path d="M8706 3861 c-24 -45 -20 -51 29 -51 43 0 45 1 45 29 0 18 -6 31 -17
35 -10 3 -23 9 -30 12 -7 3 -19 -8 -27 -25z"/>
<path d="M8122 6023 c2 -22 9 -29 31 -31 24 -3 27 0 27 27 0 28 -3 31 -31 31
-27 0 -30 -3 -27 -27z"/>
<path d="M7132 5999 c4 -29 29 -43 61 -35 20 5 27 13 27 31 0 23 -4 25 -46 25
-41 0 -45 -2 -42 -21z"/>
<path d="M2422 5958 c-22 -22 -14 -77 14 -103 45 -41 74 -26 74 37 0 59 -54
100 -88 66z"/>
<path d="M8312 5825 c-7 -14 -12 -27 -12 -29 0 -2 17 0 38 3 28 5 38 11 40 29
3 18 -1 22 -26 22 -21 0 -32 -7 -40 -25z"/>
<path d="M1270 5733 c0 -20 11 -55 24 -77 31 -55 37 -85 23 -118 -7 -16 -58
-75 -114 -132 -57 -57 -103 -110 -103 -116 0 -17 35 -3 86 33 44 31 44 31 64
11 20 -20 20 -20 -9 -65 -34 -55 -90 -85 -172 -95 -53 -6 -58 -9 -74 -43 -9
-20 -45 -83 -80 -141 -83 -138 -97 -168 -133 -280 -45 -138 -57 -218 -42 -281
12 -51 13 -51 26 -28 20 36 53 138 94 288 20 77 42 138 50 142 8 4 49 23 90
42 229 105 381 315 409 569 10 86 1 212 -19 286 l-11 42 -54 0 -55 0 0 -37z"/>
<path d="M2276 5688 c-9 -12 -16 -28 -16 -34 0 -18 33 -52 58 -59 21 -6 22 -4
22 54 0 58 -1 61 -24 61 -14 0 -32 -10 -40 -22z"/>
<path d="M4202 5693 c-13 -25 -24 -117 -16 -137 9 -23 50 -20 68 6 23 33 21
103 -4 128 -25 25 -37 25 -48 3z"/>
<path d="M4340 5691 c-18 -34 -11 -71 16 -96 34 -32 58 -32 72 0 16 35 15 66
-4 93 -20 28 -69 30 -84 3z"/>
<path d="M4548 5693 c-31 -20 -48 -52 -48 -93 0 -28 3 -30 35 -30 50 0 95 42
102 98 l6 42 -34 0 c-19 0 -46 -8 -61 -17z"/>
<path d="M8446 5683 c-105 -68 -186 -190 -186 -282 0 -28 3 -51 8 -50 8 0 102
120 154 198 34 50 75 147 67 155 -2 2 -22 -8 -43 -21z"/>
<path d="M4020 5603 c0 -39 -12 -54 -62 -79 -52 -27 -72 -59 -62 -100 7 -29
18 -27 104 15 69 33 100 77 100 140 l0 47 -40 -1 c-34 0 -40 -3 -40 -22z"/>
<path d="M4864 5559 c-16 -17 -58 -51 -94 -75 -101 -67 -134 -101 -124 -128
12 -31 46 -16 106 45 59 59 60 60 85 44 24 -16 26 -16 53 10 40 39 56 80 42
110 -15 33 -32 31 -68 -6z"/>
<path d="M4593 5560 c-13 -5 -24 -17 -24 -27 -4 -65 15 -88 64 -79 44 8 57 24
64 76 l6 40 -44 -1 c-24 0 -54 -4 -66 -9z"/>
<path d="M5125 5501 c-22 -10 -61 -41 -87 -67 -48 -51 -171 -224 -164 -232 8
-7 110 44 144 72 18 16 72 74 122 131 67 78 85 105 74 109 -25 10 -47 7 -89
-13z"/>
<path d="M9316 5475 c-4 -19 -20 -63 -36 -96 -27 -59 -29 -79 -7 -107 8 -10
21 6 54 65 49 88 54 135 17 160 -20 13 -22 12 -28 -22z"/>
<path d="M4176 5425 c-118 -48 -227 -143 -317 -277 -55 -81 -133 -245 -161
-341 -19 -67 -20 -81 -9 -99 7 -12 22 -46 32 -76 10 -30 24 -61 31 -69 10 -13
7 -19 -17 -36 -57 -42 -113 -98 -125 -127 -18 -42 4 -81 55 -98 80 -27 138 -2
258 108 63 58 98 82 129 90 280 72 481 268 534 520 16 75 15 273 -1 312 -9 23
-97 78 -159 100 -76 26 -177 23 -250 -7z m277 -94 c52 -58 69 -98 75 -173 l5
-66 -39 -20 c-48 -24 -122 -89 -165 -143 -29 -36 -30 -42 -17 -56 20 -20 44
-7 93 49 36 41 37 42 31 14 -23 -96 -107 -200 -189 -231 -26 -10 -50 -15 -54
-11 -4 3 -1 21 5 39 19 52 16 67 -13 67 -40 0 -86 -23 -145 -74 -32 -27 -73
-52 -97 -59 -24 -6 -43 -16 -43 -21 0 -5 9 -28 20 -51 11 -23 18 -49 15 -57
-15 -38 -165 -126 -165 -97 0 6 20 35 44 65 53 65 74 117 55 140 -7 8 -27 21
-46 29 -40 17 -41 26 -8 140 60 205 122 325 216 415 82 79 226 137 345 139 36
1 46 -4 77 -38z"/>
<path d="M8060 5393 c-18 -57 -42 -92 -125 -184 -104 -115 -127 -155 -123
-216 l3 -48 17 31 c9 17 62 81 117 142 109 122 152 179 181 245 28 60 26 67
-19 67 -37 0 -40 -3 -51 -37z"/>
<path d="M8477 5327 c-26 -41 -93 -136 -150 -213 -196 -265 -337 -474 -337
-500 0 -4 12 2 28 12 95 62 171 153 307 369 94 150 177 258 227 297 28 21 30
27 21 53 -5 15 -18 34 -30 42 -19 13 -23 9 -66 -60z"/>
<path d="M7833 5294 c-72 -72 -93 -99 -98 -128 -4 -20 -5 -40 -2 -43 11 -11
95 47 135 93 48 54 79 126 66 152 -8 14 -23 3 -101 -74z"/>
<path d="M4720 5285 c0 -21 5 -25 30 -25 25 0 30 4 30 25 0 21 -5 25 -30 25
-25 0 -30 -4 -30 -25z"/>
<path d="M5094 5143 c-9 -20 -70 -94 -137 -165 -67 -71 -141 -157 -165 -191
-44 -63 -97 -166 -89 -173 2 -2 76 69 163 158 115 118 180 193 232 271 39 59
72 115 72 123 0 9 -11 14 -31 14 -25 0 -32 -6 -45 -37z"/>
<path d="M8127 5150 c-14 -11 -33 -43 -42 -70 -13 -39 -28 -59 -63 -86 -114
-86 -159 -144 -150 -191 6 -35 33 -21 91 45 31 37 88 101 125 143 37 41 80 99
95 127 l28 52 -29 0 c-16 0 -41 -9 -55 -20z"/>
<path d="M4752 5128 c-31 -31 -3 -57 35 -32 25 16 26 17 8 30 -23 17 -28 17
-43 2z"/>
<path d="M8379 4883 c-80 -87 -208 -228 -285 -313 -155 -174 -373 -400 -385
-400 -4 0 10 32 33 72 58 102 96 196 104 257 6 45 4 57 -15 81 -11 16 -21 35
-21 43 0 34 -229 84 -332 73 -115 -13 -147 -29 -229 -113 -81 -83 -203 -234
-276 -345 l-45 -66 3 -94 c8 -242 7 -244 -40 -358 -72 -173 -74 -217 -10 -239
88 -31 122 -1 168 148 37 118 66 151 134 151 70 0 174 27 240 62 44 23 108 77
218 184 125 122 168 157 222 183 54 26 76 44 114 94 26 34 122 154 214 267
200 246 362 470 341 470 -4 0 -73 -71 -153 -157z m-701 -318 c51 -57 54 -142
10 -228 -28 -57 -159 -247 -170 -247 -12 0 -10 5 11 42 24 40 43 121 35 143
-6 14 -8 14 -26 -2 -27 -25 -56 -82 -89 -182 -32 -92 -65 -143 -110 -166 -41
-22 -121 -35 -154 -26 l-28 7 30 34 c19 21 59 46 104 65 54 22 80 39 96 64 37
54 32 64 -30 59 -68 -6 -124 -33 -217 -108 -41 -33 -78 -60 -82 -60 -5 0 -8
28 -8 63 0 254 201 483 495 562 80 22 99 19 133 -20z m-729 -948 c-22 -48 -45
-29 -27 21 10 27 15 30 26 19 10 -11 11 -19 1 -40z"/>
<path d="M5238 4963 c-12 -21 -80 -97 -150 -170 -96 -100 -134 -147 -157 -196
-17 -36 -31 -72 -31 -82 0 -20 9 -13 144 103 147 128 295 332 266 367 -21 25
-47 17 -72 -22z"/>
<path d="M4627 4861 c-16 -27 -16 -28 9 -40 22 -10 28 -9 40 6 18 24 17 28 -9
46 -22 14 -25 14 -40 -12z"/>
<path d="M7562 4875 c-21 -9 -38 -27 -47 -49 -19 -46 -19 -46 11 -46 34 0 84
50 84 84 0 30 -3 30 -48 11z"/>
<path d="M5480 4872 c0 -5 -28 -36 -62 -68 -106 -102 -121 -118 -139 -159 -18
-40 -18 -40 4 -46 43 -10 91 14 158 81 76 75 98 123 79 171 -11 26 -40 41 -40
21z"/>
<path d="M8518 4726 c-16 -23 -89 -116 -164 -206 -154 -186 -204 -255 -244
-343 -53 -116 -50 -127 18 -77 48 35 84 86 116 163 17 42 41 73 105 133 90 85
146 160 193 259 46 98 27 153 -24 71z"/>
<path d="M9712 4730 c-12 -21 -58 -84 -102 -140 -129 -162 -180 -252 -180
-319 0 -23 4 -19 37 29 20 30 73 101 119 158 96 121 142 202 150 266 4 25 5
46 3 46 -2 0 -14 -18 -27 -40z"/>
<path d="M1171 4643 c-47 -105 -59 -184 -32 -216 12 -15 19 -5 63 87 58 122
67 165 44 201 -9 14 -20 25 -24 25 -4 0 -27 -44 -51 -97z"/>
<path d="M1445 4658 c-122 -210 -137 -254 -106 -292 11 -13 17 -8 42 39 16 30
61 105 99 167 39 61 70 115 70 120 0 11 -38 48 -49 48 -4 0 -30 -37 -56 -82z"/>
<path d="M1605 4572 c-34 -7 -84 -51 -106 -95 -18 -34 -59 -142 -59 -153 0 -9
58 20 79 39 21 19 117 206 109 211 -2 1 -12 0 -23 -2z"/>
<path d="M1690 4548 c0 -20 -22 -77 -57 -145 -56 -112 -56 -113 -43 -155 12
-42 13 -42 23 -18 30 75 73 155 127 239 33 52 60 98 60 103 0 4 -25 8 -55 8
l-55 0 0 -32z"/>
<path d="M1866 4529 c-53 -47 -124 -181 -151 -284 -19 -74 -19 -90 1 -109 23
-24 31 -20 39 21 8 45 45 119 95 193 50 74 78 130 89 179 8 36 7 41 -9 41 -9
0 -38 -19 -64 -41z"/>
<path d="M942 4528 c-55 -68 -112 -211 -112 -282 0 -40 30 -100 43 -86 3 3 22
55 43 115 26 77 39 134 42 188 5 78 3 87 -16 65z"/>
<path d="M2770 4398 c-248 -27 -412 -167 -479 -407 -32 -116 -44 -249 -39
-434 4 -134 8 -172 19 -176 8 -2 34 -26 59 -52 53 -56 93 -71 109 -41 6 11 14
46 17 78 10 88 17 100 70 118 174 59 327 257 379 490 23 105 17 267 -14 347
-33 86 -34 87 -121 77z m-12 -81 c6 -6 12 -28 14 -47 3 -30 7 -35 31 -38 27
-3 27 -4 27 -75 0 -72 -4 -91 -41 -219 l-19 -66 -49 -12 c-59 -14 -94 -45
-155 -138 -74 -111 -143 -158 -173 -116 -26 36 -47 128 -47 209 1 202 124 394
309 481 79 37 88 39 103 21z"/>
<path d="M1909 4236 c-78 -162 -99 -221 -99 -285 0 -42 33 -131 49 -131 3 0
15 48 25 108 10 59 28 146 40 194 20 77 29 94 75 144 29 31 51 64 49 72 -2 9
-18 22 -36 29 l-33 13 -70 -144z"/>
<path d="M5498 4282 c-68 -58 -95 -91 -197 -246 -96 -143 -100 -155 -43 -156
17 0 28 13 50 58 20 41 58 87 129 157 106 105 129 145 114 201 l-7 27 -46 -41z"/>
<path d="M8399 4240 c-75 -45 -198 -155 -185 -167 8 -9 154 69 195 103 39 34
88 101 79 110 -3 2 -43 -18 -89 -46z"/>
<path d="M9566 4167 c-128 -131 -169 -192 -187 -275 -8 -42 -21 -63 -60 -104
-28 -29 -95 -124 -151 -210 -71 -113 -114 -171 -151 -201 -154 -128 -185 -173
-160 -229 8 -19 17 -12 97 80 114 130 192 233 361 472 160 227 274 375 364
472 58 63 63 71 53 93 -7 14 -20 25 -29 24 -10 0 -72 -56 -137 -122z"/>
<path d="M5719 4232 c-99 -63 -173 -222 -150 -324 16 -70 32 -76 50 -18 6 22
31 77 55 122 135 258 130 248 107 248 -9 0 -37 -13 -62 -28z"/>
<path d="M5165 4131 c-90 -40 -167 -191 -138 -268 7 -20 14 -14 78 63 64 78
125 181 125 212 0 17 -18 15 -65 -7z"/>
<path d="M870 4008 c-120 -257 -216 -604 -245 -893 l-8 -70 23 20 c34 31 48
65 81 203 91 384 113 466 144 563 20 58 54 141 76 184 42 84 44 105 6 105 -21
0 -31 -15 -77 -112z"/>
<path d="M1338 4074 c-102 -31 -208 -170 -237 -312 -13 -64 -15 -279 -2 -286
15 -10 69 42 80 77 6 18 15 82 20 144 12 129 29 173 91 226 49 42 106 59 180
55 l55 -3 13 -65 c25 -127 -17 -258 -118 -360 -89 -91 -234 -160 -336 -160
l-42 0 -41 -82 c-45 -91 -63 -177 -41 -203 7 -8 28 -15 46 -15 28 0 47 12 103
63 60 55 83 69 182 106 109 42 117 47 189 120 128 130 186 277 178 450 -6 131
-34 202 -86 224 -91 39 -156 45 -234 21z m-188 -755 c0 -6 -14 -24 -31 -40
-20 -18 -29 -35 -25 -45 4 -10 1 -14 -6 -12 -20 7 -21 56 -3 84 16 24 65 34
65 13z"/>
<path d="M5777 4032 c-33 -47 -36 -101 -6 -128 19 -17 23 -17 47 -3 15 8 31
27 36 42 13 35 -3 96 -30 114 -19 12 -23 10 -47 -25z"/>
<path d="M7848 4023 c-13 -26 -70 -97 -128 -158 -58 -60 -122 -130 -141 -155
-34 -42 -69 -101 -69 -115 0 -18 138 94 235 190 77 76 121 129 143 171 37 72
39 89 13 104 -28 14 -27 15 -53 -37z"/>
<path d="M5902 3990 c-20 -85 8 -110 64 -58 45 42 44 69 -1 91 -20 9 -39 17
-44 17 -4 0 -13 -22 -19 -50z"/>
<path d="M5444 3945 c-7 -19 -14 -50 -14 -70 0 -32 2 -35 30 -35 23 0 33 7 45
31 19 36 12 85 -15 99 -27 15 -30 13 -46 -25z"/>
<path d="M6042 3925 c-7 -14 -12 -38 -12 -53 0 -22 8 -30 39 -43 27 -12 49
-32 73 -70 67 -104 93 -110 109 -27 17 89 15 93 -61 142 -65 42 -124 76 -133
76 -2 0 -9 -11 -15 -25z"/>
<path d="M7946 3820 c-124 -134 -191 -222 -175 -229 18 -6 122 70 190 138 68
68 111 128 122 169 6 25 0 52 -12 52 -3 0 -60 -58 -125 -130z"/>
<path d="M4291 3784 c-22 -27 -23 -31 -41 -111 -13 -56 -40 -89 -66 -79 -12 5
-15 14 -10 39 16 73 13 92 -15 95 -36 4 -48 -15 -56 -87 -9 -96 -43 -117 -89
-56 -17 22 -35 35 -50 35 -31 0 -34 -7 -23 -65 6 -28 7 -65 4 -84 -7 -37 -48
-81 -76 -81 -23 0 -23 -1 -3 45 8 21 13 44 10 51 -8 20 -43 17 -66 -6 -17 -17
-20 -33 -20 -113 0 -88 -2 -95 -26 -118 -45 -41 -84 -136 -84 -202 0 -98 52
-148 63 -62 9 60 59 180 108 256 80 123 194 219 313 264 95 36 225 18 303 -41
32 -25 34 -28 27 -72 -10 -69 -39 -142 -75 -185 -17 -21 -75 -74 -128 -118
-97 -81 -165 -154 -176 -190 -17 -53 -150 -64 -289 -24 -48 14 -96 23 -106 20
-33 -10 -109 -104 -121 -148 -9 -33 -8 -51 2 -82 13 -36 18 -40 52 -43 34 -3
42 2 90 51 l52 54 111 7 c205 12 337 62 454 172 101 96 175 234 218 409 41
162 42 151 -37 229 -46 44 -76 84 -87 113 -15 38 -21 44 -43 41 -19 -2 -31
-14 -45 -41 -23 -49 -40 -35 -21 18 8 22 14 61 15 88 0 43 -2 47 -24 47 -14 0
-33 -11 -45 -26z"/>
<path d="M5930 3803 c-90 -14 -178 -41 -260 -80 -80 -38 -108 -58 -175 -127
-65 -66 -90 -99 -127 -176 -26 -52 -54 -119 -62 -148 l-15 -53 29 21 c16 11
76 82 133 158 58 75 124 156 147 179 79 78 195 123 314 123 51 0 54 -1 85 -45
36 -50 61 -105 61 -133 0 -30 -96 -169 -161 -234 -95 -96 -251 -150 -386 -134
-49 6 -53 5 -53 -15 0 -58 32 -69 139 -49 87 16 113 -15 30 -37 -64 -17 -147
-15 -200 3 l-47 17 -79 -56 c-94 -66 -118 -74 -167 -53 -46 19 -46 31 2 47 95
31 162 78 177 126 6 23 6 23 -77 -7 -155 -57 -235 -107 -271 -169 l-18 -30 40
-27 c62 -40 111 -41 237 -5 104 29 169 41 417 75 148 21 181 33 238 84 150
135 260 363 263 545 l1 82 -63 63 c-66 64 -75 68 -152 55z"/>
<path d="M7309 3717 c-42 -51 -157 -180 -255 -287 -257 -281 -334 -367 -334
-374 0 -11 174 110 243 169 85 71 149 155 196 255 35 75 41 82 111 128 79 51
150 121 150 148 0 19 -18 54 -28 54 -4 -1 -41 -42 -83 -93z"/>
<path d="M5366 3716 c-15 -54 -16 -67 -4 -85 15 -24 18 -25 52 -10 27 13 46
55 46 103 0 24 -6 34 -27 44 -15 6 -32 12 -38 12 -5 0 -18 -29 -29 -64z"/>
<path d="M1890 3642 c-18 -31 -89 -138 -157 -237 -115 -165 -203 -316 -203
-347 0 -24 112 98 169 184 32 47 82 138 111 202 44 94 58 116 75 116 23 0 72
46 75 70 5 33 -1 50 -19 60 -17 8 -23 2 -51 -48z"/>
<path d="M5074 3626 c-95 -64 -176 -180 -199 -283 -8 -42 1 -41 56 1 57 45
106 110 163 216 63 117 61 121 -20 66z"/>
<path d="M846 3585 c-67 -151 -79 -196 -80 -297 -1 -107 16 -154 27 -74 4 25
27 98 52 163 53 136 66 209 42 243 -16 23 -16 22 -41 -35z"/>
<path d="M2063 3540 c-119 -78 -207 -201 -305 -427 -32 -74 -57 -137 -55 -140
15 -14 166 190 282 382 27 44 73 113 102 153 29 39 50 72 45 72 -4 0 -35 -18
-69 -40z"/>
<path d="M5241 3496 c-17 -38 -54 -90 -92 -132 -138 -149 -168 -185 -185 -229
-9 -25 -14 -48 -11 -52 13 -13 101 69 187 175 50 61 104 120 120 132 22 16 30
29 30 51 0 17 7 43 15 60 18 33 14 44 -15 52 -17 4 -25 -5 -49 -57z"/>
<path d="M6613 3430 c-159 -74 -323 -199 -391 -297 l-23 -32 31 11 c17 6 52
26 78 44 82 59 132 86 147 81 7 -3 22 -18 31 -32 17 -26 17 -29 0 -73 -31 -81
-32 -78 16 -91 24 -7 48 -14 54 -17 6 -3 14 9 17 25 4 20 32 56 77 101 60 59
70 75 70 104 0 40 -16 56 -25 25 -7 -22 -76 -58 -111 -59 -16 0 -23 7 -26 28
-3 15 -8 34 -12 44 -6 13 7 24 59 53 65 37 87 59 100 103 8 29 5 28 -92 -18z"/>
<path d="M8624 3340 c-17 -11 -58 -62 -92 -113 -34 -53 -91 -122 -131 -159
-116 -110 -392 -337 -449 -370 -69 -39 -92 -65 -92 -101 l0 -29 40 36 c41 36
84 49 78 22 -6 -27 -360 -401 -405 -427 -67 -40 -72 -47 -45 -69 l23 -19 137
138 c75 76 199 191 275 256 75 65 137 125 137 134 -1 9 -7 34 -15 56 -14 38
-14 41 7 55 136 92 354 292 496 454 53 61 105 121 116 134 l19 22 -34 0 c-19
0 -48 -9 -65 -20z"/>
<path d="M1384 3153 c-76 -132 -97 -187 -102 -274 -2 -44 0 -84 6 -95 9 -16
17 -6 56 76 62 132 86 212 93 303 3 42 4 77 1 77 -2 0 -27 -39 -54 -87z"/>
<path d="M2688 3188 c-72 -86 -269 -376 -314 -463 -48 -93 -60 -148 -43 -190
l11 -30 11 25 c107 243 238 450 366 575 50 48 57 66 45 113 -10 34 -27 27 -76
-30z"/>
<path d="M2862 3110 c-14 -29 -61 -90 -118 -150 -121 -128 -151 -192 -128
-277 9 -32 17 -29 42 16 12 21 68 101 124 177 57 76 121 163 142 193 l39 53
-24 19 c-38 29 -52 23 -77 -31z"/>
<path d="M3246 3050 c-31 -29 -87 -98 -126 -154 -111 -161 -109 -160 -145 -90
-13 25 -28 40 -43 42 -19 3 -22 -1 -22 -29 l0 -32 -49 6 c-62 7 -87 -10 -175
-120 -75 -92 -127 -141 -169 -155 -27 -10 -29 -14 -23 -47 3 -20 11 -97 16
-171 12 -151 25 -231 47 -273 20 -40 8 -64 -45 -90 -40 -18 -47 -27 -50 -54
-3 -28 0 -32 34 -43 22 -8 61 -10 96 -7 83 7 136 43 310 207 79 74 164 146
189 159 30 16 56 41 75 70 16 25 63 89 104 141 116 146 179 244 165 258 -11
11 -76 -31 -110 -71 -18 -21 -61 -86 -96 -144 -39 -64 -76 -113 -94 -124 -40
-25 -48 -24 -31 4 7 12 16 46 20 76 7 70 44 130 157 256 112 126 144 186 119
225 -8 12 -15 9 -45 -20 -20 -19 -59 -66 -87 -103 -28 -38 -67 -79 -86 -92
l-36 -24 -20 45 c-19 46 -19 46 1 87 12 23 55 80 97 126 79 87 107 143 88 176
-9 16 -16 13 -66 -35z m-258 -379 c20 -11 50 -33 65 -49 25 -26 27 -35 22 -68
-29 -169 -120 -304 -277 -409 -39 -25 -55 -42 -51 -52 6 -15 16 -14 86 3 26 6
28 4 25 -16 -2 -17 -10 -23 -33 -25 -17 -1 -45 -10 -62 -19 -45 -23 -65 -20
-96 12 -117 122 -94 382 49 541 85 94 188 125 272 82z"/>
<path d="M6260 2830 c-102 -99 -188 -180 -193 -180 -24 0 4 49 49 84 29 23 60
55 70 72 15 27 16 36 4 63 -7 17 -16 31 -21 31 -5 0 -89 -78 -187 -173 -97
-95 -211 -200 -252 -233 -90 -71 -208 -134 -307 -164 -69 -21 -75 -25 -117
-84 -64 -90 -185 -200 -262 -237 -66 -33 -174 -52 -174 -31 0 16 71 105 110
139 19 16 94 71 167 121 72 51 148 111 167 134 50 57 87 188 54 188 -6 0 -99
-89 -207 -198 -193 -196 -250 -247 -323 -291 l-37 -22 -35 32 c-31 27 -36 28
-36 12 0 -10 14 -41 31 -68 42 -66 50 -91 50 -152 0 -44 3 -52 22 -57 80 -21
130 4 251 127 93 95 106 105 161 120 33 9 74 25 91 36 35 21 78 74 88 108 7
21 5 21 -26 12 -41 -11 -48 -11 -48 1 0 6 5 10 10 10 6 0 28 18 48 39 l37 39
67 -5 c114 -9 183 26 343 176 49 46 108 97 130 113 l40 29 5 -22 c8 -35 26
-33 49 5 28 44 65 77 188 164 143 101 191 160 181 221 -2 17 -37 -12 -188
-159z"/>
<path d="M2277 2941 c-23 -65 -23 -66 20 -66 29 0 39 5 44 20 8 29 -4 66 -27
81 -18 12 -21 10 -37 -35z"/>
<path d="M6060 2983 c-29 -11 -57 -44 -85 -103 -28 -58 -32 -62 -122 -110
-142 -74 -225 -134 -298 -212 -36 -39 -64 -73 -61 -75 7 -7 128 57 216 115 85
56 274 235 359 340 42 51 40 63 -9 45z"/>
<path d="M4701 2868 c-86 -44 -168 -122 -261 -246 -43 -59 -77 -108 -76 -110
5 -5 96 47 147 84 26 19 73 62 105 97 67 71 169 207 156 207 -5 0 -37 -14 -71
-32z"/>
<path d="M1141 2867 c-13 -6 -33 -24 -45 -40 -27 -36 -35 -142 -13 -183 15
-28 15 -28 56 99 22 69 41 129 41 132 0 8 -13 6 -39 -8z"/>
<path d="M5630 2825 c-154 -139 -213 -205 -196 -222 8 -8 201 132 225 163 24
31 35 63 29 91 -3 15 -13 9 -58 -32z"/>
<path d="M4821 2759 c-80 -40 -173 -127 -272 -254 -43 -55 -91 -116 -107 -135
l-29 -35 26 -34 c18 -24 56 -49 121 -80 52 -25 97 -47 101 -48 3 -2 3 11 1 29
-3 24 5 45 27 78 17 25 31 55 31 67 0 25 59 79 170 158 86 61 145 119 158 155
10 28 -1 70 -19 70 -6 0 -102 -91 -213 -203 -110 -111 -216 -213 -233 -225
l-33 -23 0 47 c0 74 31 124 133 217 136 122 171 159 191 201 10 21 16 40 13
42 -2 2 -32 -10 -66 -27z"/>
<path d="M1327 2721 c-41 -69 -84 -214 -112 -376 l-7 -40 27 25 c33 31 58 78
78 150 20 70 40 207 35 244 l-3 28 -18 -31z"/>
<path d="M5293 2664 c-32 -11 -48 -12 -63 -4 -17 9 -37 -8 -171 -145 -174
-177 -242 -262 -263 -322 -8 -24 -12 -43 -8 -43 4 0 32 25 62 56 79 80 351
329 443 403 42 35 77 65 77 67 0 8 -37 2 -77 -12z"/>
<path d="M3839 2612 c-83 -53 -134 -120 -282 -372 -79 -133 -132 -189 -354
-368 -335 -270 -427 -334 -525 -367 -38 -13 -56 -30 -105 -93 -71 -91 -197
-216 -423 -419 -147 -133 -316 -310 -305 -321 7 -8 116 47 198 101 80 52 307
235 337 273 14 16 13 16 -10 4 -14 -7 -48 -28 -76 -47 -30 -20 -61 -33 -73
-31 -17 2 8 29 126 134 188 167 339 295 528 449 173 140 440 345 450 345 4 0
4 -18 0 -39 -6 -34 -3 -41 15 -51 12 -6 23 -10 24 -8 2 2 29 48 61 103 32 55
129 206 215 335 183 275 262 400 251 400 -4 0 -27 -13 -52 -28z"/>
<path d="M3518 2588 c-8 -18 -46 -73 -83 -123 -73 -97 -113 -172 -122 -231
l-6 -38 31 22 c47 34 129 130 168 196 46 78 62 143 42 180 l-14 27 -16 -33z"/>
<path d="M4079 2522 c-145 -184 -299 -412 -280 -412 24 0 69 24 100 53 42 40
225 267 263 326 29 47 36 99 16 119 -7 7 -14 12 -17 12 -4 -1 -40 -45 -82 -98z"/>
<path d="M7725 2496 c-17 -17 -45 -43 -63 -59 -30 -26 -44 -67 -22 -67 6 0 10
4 10 10 0 5 27 27 59 50 69 46 75 53 66 80 -8 26 -14 24 -50 -14z"/>
<path d="M4326 2294 c-31 -31 -13 -74 31 -74 19 0 23 5 23 33 0 31 -14 57 -31
57 -4 0 -15 -7 -23 -16z"/>
<path d="M2045 2258 c-62 -71 -103 -176 -76 -193 19 -11 131 184 131 226 0 19
-20 7 -55 -33z"/>
<path d="M5684 2265 c-73 -44 -144 -118 -144 -152 0 -13 4 -23 9 -21 18 6 170
148 191 178 28 39 17 38 -56 -5z"/>
<path d="M4160 2201 c0 -20 8 -34 25 -45 l25 -16 0 34 c0 25 -6 38 -19 46 -28
15 -31 13 -31 -19z"/>
<path d="M2316 2133 c-32 -66 -111 -182 -200 -293 -85 -107 -152 -212 -176
-277 -11 -30 -19 -57 -17 -59 2 -2 18 17 35 44 17 26 99 123 181 217 156 177
210 254 238 342 13 43 14 55 3 67 -21 27 -35 18 -64 -41z"/>
<path d="M4244 2107 c-238 -129 -329 -221 -378 -386 -9 -30 -16 -82 -16 -115
0 -58 -2 -62 -35 -85 -20 -13 -49 -40 -66 -59 -34 -38 -76 -118 -67 -127 3 -3
23 -9 44 -12 22 -3 47 -12 56 -20 21 -19 39 -9 121 64 82 74 115 93 159 93 37
0 88 -17 88 -30 0 -3 -26 -24 -57 -47 -32 -22 -125 -100 -208 -173 -189 -168
-291 -244 -380 -286 -38 -18 -71 -31 -73 -29 -2 2 16 21 40 42 80 70 240 228
261 258 l22 30 -46 -35 c-473 -359 -909 -680 -1052 -775 -31 -21 -55 -40 -53
-42 6 -6 514 250 781 394 432 234 431 233 445 273 36 102 120 187 280 287 98
62 100 63 85 123 -6 23 0 28 82 68 197 97 311 190 355 288 36 83 36 229 0 274
-11 14 -46 27 -107 41 -49 12 -108 26 -131 33 -39 12 -42 11 -150 -47z m224
-62 c78 -45 86 -56 79 -106 -13 -95 -73 -154 -268 -259 -46 -25 -100 -60 -121
-78 l-37 -33 -51 18 c-46 16 -53 16 -78 3 -15 -9 -43 -44 -62 -79 -38 -69 -58
-88 -84 -78 -28 11 -18 40 34 100 48 56 50 61 50 117 0 82 32 163 86 216 29
30 79 61 161 99 93 44 215 104 230 114 1 0 28 -15 61 -34z"/>
<path d="M3130 2033 c-61 -36 -240 -203 -240 -225 0 -5 23 3 52 19 50 27 283
242 263 243 -6 0 -40 -17 -75 -37z"/>
<path d="M1722 1865 c-78 -71 -107 -133 -52 -114 54 19 121 111 108 150 -2 6
-27 -10 -56 -36z"/>
<path d="M5057 1784 c-35 -11 -67 -33 -120 -84 -68 -66 -70 -69 -44 -70 61 0
128 44 199 133 33 41 33 42 -35 21z"/>
<path d="M2470 1753 c0 -5 -44 -56 -98 -116 -95 -103 -171 -211 -159 -223 8
-9 93 56 143 108 44 45 107 139 117 173 3 11 8 30 12 43 4 13 2 22 -4 22 -6 0
-11 -3 -11 -7z"/>
<path d="M1387 1495 c-103 -118 -185 -215 -181 -215 3 0 43 29 89 64 162 127
266 249 280 329 4 20 6 37 4 37 -2 0 -88 -97 -192 -215z"/>
<path d="M3112 857 c-90 -67 -107 -87 -97 -117 6 -18 11 -16 58 23 89 74 127
114 127 136 0 11 -1 21 -2 20 -2 0 -41 -28 -86 -62z"/>
<path d="M4660 645 c0 -9 -20 -24 -45 -35 -42 -18 -65 -43 -52 -56 9 -10 77
28 97 54 21 27 26 52 10 52 -5 0 -10 -7 -10 -15z"/>
<path d="M4003 365 c-35 -15 -44 -35 -17 -35 16 0 84 37 84 46 0 8 -36 3 -67
-11z"/>
<path d="M3617 256 c-4 -9 -22 -16 -44 -18 -33 -3 -38 -7 -41 -30 -4 -32 5
-34 53 -14 37 16 63 52 47 68 -6 6 -11 4 -15 -6z"/>
<path d="M3730 226 c0 -9 -17 -24 -37 -33 -47 -23 -54 -43 -15 -43 32 0 82 33
82 55 0 7 -7 18 -15 25 -12 10 -15 10 -15 -4z"/>
<path d="M6930 10910 c0 -22 31 -84 65 -131 44 -59 110 -109 144 -108 15 0 20
3 13 6 -7 2 -44 49 -82 103 -80 112 -140 168 -140 130z"/>
<path d="M8580 9955 c-57 -11 -162 -26 -189 -27 -23 -1 -29 -4 -21 -12 7 -7
68 -11 168 -11 109 -1 164 -5 180 -14 32 -17 36 -9 12 22 -28 35 -92 53 -150
42z"/>
<path d="M8268 9863 c-21 -2 -38 -7 -38 -11 0 -4 70 -20 155 -36 116 -21 170
-27 212 -22 64 7 98 21 73 30 -60 20 -334 47 -402 39z"/>
<path d="M7494 11914 c-16 -86 9 -148 101 -254 95 -110 108 -141 103 -248 -5
-89 -8 -98 -101 -322 -50 -119 -67 -192 -67 -285 l1 -80 21 25 c32 38 63 113
102 246 19 66 44 141 55 166 19 44 85 128 101 128 12 0 29 -162 40 -375 17
-332 38 -424 115 -500 43 -44 103 -68 89 -36 -57 136 -65 192 -73 516 l-6 270
-37 -2 -36 -2 -12 67 c-6 37 -38 138 -71 225 -83 222 -81 226 42 109 55 -53
118 -109 140 -125 l38 -28 -10 30 c-16 47 -79 145 -131 204 -26 30 -114 111
-197 181 -167 141 -195 153 -207 90z"/>
<path d="M10575 11902 c-22 -10 -54 -31 -71 -45 -22 -19 -43 -27 -69 -27 -65
0 -237 -40 -330 -77 -174 -69 -317 -165 -479 -323 -126 -122 -191 -197 -420
-485 l-168 -210 35 -10 c51 -15 54 -23 11 -31 -28 -5 -50 -20 -84 -57 -101
-110 -147 -157 -158 -157 -14 0 8 81 42 156 31 68 82 138 181 249 39 44 77 89
85 100 15 19 15 20 -15 1 -69 -44 -161 -124 -212 -185 -133 -160 -170 -334
-106 -493 l16 -39 70 3 71 3 14 55 c17 67 79 202 123 267 66 98 164 204 366
398 115 110 233 228 263 263 41 46 65 65 95 73 49 13 91 40 175 114 82 72 158
110 340 169 228 75 309 126 360 227 19 37 20 43 7 56 -24 24 -96 26 -142 5z
m-528 -255 c-8 -13 -39 -39 -69 -57 -29 -19 -70 -47 -90 -63 -34 -25 -38 -27
-38 -10 0 24 36 59 125 121 71 49 101 53 72 9z m-269 -189 c-5 -16 -77 -53
-85 -44 -4 3 4 17 17 31 24 26 75 35 68 13z m-218 -238 c0 -15 -112 -120 -121
-114 -23 14 -5 46 49 87 53 41 72 48 72 27z"/>
<path d="M7727 11010 c-72 -155 -52 -379 47 -535 29 -45 91 -105 108 -105 3 0
-5 26 -18 59 -33 82 -49 166 -74 388 -12 105 -25 204 -29 220 -8 28 -9 27 -34
-27z"/>
</g>
</svg>
